<?xml version="1.0" encoding="UTF-8"?>
<svg id="Layer_1" xmlns="http://www.w3.org/2000/svg" version="1.1" viewBox="0 0 1122 1122">
  <!-- Generator: Adobe Illustrator 29.3.1, SVG Export Plug-In . SVG Version: 2.1.0 Build 151)  -->
  <defs>
    <style>
      .st0 {
        fill: #ff6700;
      }
    </style>
  </defs>
  <path class="st0" d="M604,274.4c2,7.4,4.4,14.6,7.3,21.6,2.8,6.7,6,13.5,10.3,19.3,8.2,11,22.4,19.3,36.4,14.4,13.3-4.6,17.4-18.6,18.5-31.3,1.3-14.8.8-30-.7-44.8-1.5-15.2-4.5-30.3-9.4-44.7-2.5-7.2-5.4-14.1-8.9-20.9-3.2-6.3-6.9-12.3-11.9-17.3s-16.6-10.6-25.6-8.2c-2.8,0-5.7.9-8.2,2.5-5.7,3.8-8.3,10.7-9.7,17.1-3.4,15-4.7,30.6-4.5,46,.2,15.6,2.3,31.3,6.3,46.4h.1ZM624.6,280.5c0,6.9-.4,13.8-1.1,20.6-3.3-6.2-5.8-12.9-7.9-19.2-.9-2.5-1.7-5.1-2.5-7.7,1.2.1,2.3.3,3.5.5,2.7.6,5.3,1.4,7.8,2.4h0v3.3h.1ZM611.4,175.6c0-.3.2-.5.3-.8,9.3,15.5,15.7,32.4,20.5,49.8.2.7,1.3.6,1.2-.2-1.1-13.7-4.8-26.9-10.3-39.3-.2-1.6-.5-3.2-.3-4.8,0-.8.3-1.5.6-2.2,0,.3.3.5.4.8,1.8,3.4,3.4,6.9,4.8,10.6,2.8,7.3,5.2,14.9,7.1,22.5.2.6,1.1.5,1.1-.1,0-8.3-1.2-16.2-3.8-24-1.3-3.8-2.8-7.5-4.5-11.2-.5-1-.9-2.1-1.5-3.2.8-.6,1.7-1,2.6-1.3,1.2,2.1,2.7,4.2,3.7,6.1,1,2,1.8,4,2.6,6.1.5,1.3.8,2.5,2,3.3,0,.1.4,0,.5-.1.7-1.6.2-3.1-.2-4.7-.6-2.1-1.2-4.2-2-6.2-.5-1.2-.9-2.5-1.5-3.8.9.6,1.7,1.2,2.5,1.9.2.2.3.3.5.5.6,1.2,1.3,2.5,1.8,3.7,1.5,3.6,3,7.2,4.3,10.8s2.4,7.2,3.6,10.8c1.2,3.8,2.7,7.5,3.8,11.2.2.6,1,.5,1-.1,0-2.1,0-4.2,0-6.3-.2-2-.5-3.9-.9-5.9-.4-2.2-1-4.4-1.6-6.5,2.3,4.5,4.3,9.2,6.1,14,9.5,25.1,12.3,52.2,11.8,78.8-.2,9,.2,20.6-4.9,28.6.3-3.3.4-6.7.4-10,0-6.5-.7-13-2-19.4-.2-1-1.9-.8-1.8.2.2,6.4,0,12.8-.4,19.2-.2,3.1-.6,6.2-1,9.2-.3,2.1-.7,4.3-1.1,6.4-.5.3-1,.5-1.5.7-.4-.1-.8-.2-1.1-.3.2-2.1.4-4.1.5-6.1.4-3.9.5-7.8.6-11.7,0-7.9-.8-15.6-1.5-23.5,0-.8-1.3-.8-1.3,0,0,7.7-.8,15.4-1.6,23-.4,3.7-.9,7.5-1.3,11.2-.2,1.4-.4,2.9-.7,4.4-.3-.3-.6-.5-.9-.8v-9.7c0-4.8-.2-9.5-.4-14.3-.5-9.5-1.6-18.8-2.9-28.2,0-.6-1-.4-1,.1,0,9.4,0,18.7-.3,28.1,0,3.8-.2,7.7-.4,11.5-.7-3-1.2-6.1-1.7-9.2,0-3.2,0-6.4,0-9.6,0-11.3-1.5-22.5-3.5-33.7,0-.7-1.3-.6-1.3.2.5,11.1.3,22.3,0,33.5-.3,10.2-1.4,20.3-2.3,30.5-.3-.2-.6-.5-.8-.7-1.3-1.2-2.6-2.5-3.7-3.9v-.3c6.5-35.7,3.2-73.8-9-107.9-1.8-5-3.8-9.8-5.9-14.7-.8-1.8-2.8-7.2-5.4-8.9.4-1.3.8-2.6,1.3-3.9l.7-.2ZM607.4,197.3c.2-2,.4-4,.7-6.1v.2c1.6,4,3,8.1,4.3,12.2,2.7,8.4,5.1,16.8,7,25.4,2.7,12.8,4.4,25.7,5,38.7-1.8-.6-3.5-1.1-5.4-1.5-2.5-.5-5.6-1.2-8.2-.8-1.8-7.4-3-14.9-3.8-22.5-1.6-15.2-1.4-30.5.4-45.6Z"/>
  <path class="st0" d="M848,322.9c-1.6-7.2-5.6-14.3-9.2-20.8-3.8-6.8-8.1-13.3-13-19.3-4.8-5.9-10.5-11.4-17.9-13.9-2.5-.8-5.3-1.2-7.9-1-.2,0-.4-.1-.6-.1-5.8.6-9.8,5.6-10.7,11.2-1.2,7.5,2.3,14.7,5.8,21,7,12.6,16,24.3,27.4,33.2,5.3,4.1,12.1,8,19,5.6,6.8-2.4,8.5-9.4,7-15.9h.1ZM802.6,303.1c-2.4-3.9-5.1-8.1-7-12.5,1.8,1.6,3.5,3.3,5.2,5,3.8,3.7,7.3,7.8,10.5,12.1,3,4.1,5.7,8.5,8.1,13,1,1.9,1.9,3.8,2.8,5.8-7.8-6.7-14.2-14.8-19.6-23.4ZM843.2,327.9c-2.7-6.6-6.7-12.4-11.2-18.1-.2-.3-.6,0-.5.4,3.4,5.6,6,11.8,8.4,17.9-1.1-1.8-2.4-3.5-3.3-5.1-1.6-2.7-3.2-6.1-5.7-8-.2-.2-.6,0-.5.3.4,3.2,2.6,6.2,4.1,9,.9,1.7,1.8,3.6,2.8,5.5-.8-.4-1.5-.8-2.1-1.4-.9-.9-1.5-2-2.1-3-.5-1-.9-2-1.4-2.9-2.3-4.3-5.2-7.7-8.4-11.3-.3-.3-.9.1-.6.5,2.4,3.7,4.3,8,6.1,12,1.5,3.2,2.7,6.5,3.8,9.8-.7-.3-1.4-.6-2-.9-.3-1.3-1-2.5-1.7-3.6-.2-.3-.4-.6-.6-1-.3-.7-.6-1.5-.9-2.1-1-2.4-2.2-4.8-3.4-7.1-2.6-4.9-5.6-9.5-8.9-13.9-3.2-4.2-6.7-8.3-10.5-12-1.9-1.9-4-3.6-6.1-5.3-1.5-1.2-2.7-2.5-4.5-2.6-.3-1.3-.4-2.5-.3-3.8,3.5,2.7,7,5.4,10.4,8.3,3.9,3.5,7.5,7.3,11.4,10.8.3.2.7,0,.5-.4-3.3-6.1-8.2-11.8-13.7-16.6-.7-.9-1.3-1.9-1.8-3-.2-.3-.3-.7-.4-1.1,1.8,1.3,3.6,2.7,5.2,4.3,3.3,3.1,6.1,7,9.8,9.6.2.2.5-.1.4-.3-1.1-4.4-4.8-8.4-7.9-11.6-2.3-2.4-4.9-5-7.8-7,0-.3.2-.5.4-.8h0c.2,0,.4.2.6.3,1.6.8,3.1,1.7,4.5,2.7,1.5,1,2.9,2.1,4.3,3.2,1.3,1,2.4,2.4,3.8,3.2.3.2.8-.1.6-.5-1-2.8-3.5-5.4-5.9-7.3.6.2,1.1.5,1.5.7,4.9,2.6,8.8,6.7,12.3,11,7.8,9.7,14.3,20.8,19.2,32.3,1,2.5,2.5,6,2.4,9.2l-.3-.3Z"/>
  <path class="st0" d="M873.7,357.1v-.6c.2-1.5.4-2.9.2-4.4v-.3c.3-.4.5-1,.3-1.6-2.4-8.4-5.2-16.7-7.8-25.1-1-3.3-1.7-7.4-3.8-10.4-.9-1.2-1.9-2.1-3.3-2.7-.7-.3-1.5-.5-2.1-.9-1.1-.8-.7-1.2-.5-2.3h0c2.3-1.5.3-5.4-.7-7.4-2.1-4.3-4.3-8.5-6.8-12.6-2.3-3.9-4.6-7.9-7.4-11.5-1.6-2.1-4-3.7-6.4-2.9-.2-.3-.6-.5-1-.7-2.7-1.1-3.9-3.1-3.7-6,.2-2.4.5-4.6-.8-6.8-1.3-2.1-3.4-3.6-5.3-5.1-2.6-2.1-5.2-4.1-7.8-6.2-2.5-2-4.9-3.9-7.4-5.9-1.8-1.4-3.7-3-6.2-3s-1.7.2-2.5.6c-.2-.1-.5-.2-.8-.2-1.1-.1-2.2-.1-3.3-.3-1-.1-1.8-.4-2.8-.4-.3-.5-.6-1-1-1.4-2.5-2.8-6.1-3.6-9.7-3.9-8.8-.7-18,1.4-26.1,4.8-1.1.4-1.9,1.4-1.8,2.5-3.8,2.3-7.3,6.1-9.3,9.9-4.3,2.5-7.9,7.2-10.8,10.8-3.7,4.6-7.3,9.9-9.2,15.5-.3.7-.2,1.4,0,1.9-1,2.1,0,5.5,0,7.6.3,2.8.6,5.5,1.1,8.3-1.5-1.4-3-2.6-4.7-3.9-3.9-2.9-8.3-5.6-12.9-7.5,1.1-.5,1.9-1.6,1.9-3,0-11.8-1-23.7-2.8-35.4-.9-5.9-2-11.7-3.4-17.5-1.2-5.2-2.3-10.5-4.6-15.3-2-4.3-5.2-6.8-8.9-9.4-.9-.6-2.7-1.7-2.7-2.9s2.7-3.7,3.4-4.9c2.6-4.6,1.8-10.1.2-14.9-1.8-5.3-4-10.4-6.2-15.5-5.2-12.1-10.7-24.6-17.9-35.6-.7-1.1-2.1-1.8-3.4-1.5-.9-.5-1.9-.9-2.7-1.3-2.1-1-4.3-1.8-6.6-2.3,0-.2,0-.5-.2-.7-1-4.3-1.2-8.7-2.1-13.1-1-4.6-2.8-9-5.9-12.6-3-3.4-6.9-5.8-10.9-7.8-9.2-4.5-19-8.1-28.7-11.2-5-1.6-10-3-15.1-4.3-3.8-1-8.5-1.6-11,1.4-4.2,1.2-8.3,4.5-11.9,6.8-3.3,2.2-7,4.4-10.1,7.2-2.7-3-5.4-5.9-8-8.9-1.9-2.1-5.6-1.5-6.9.9-3.5,1.4-6.8,3.4-10.1,5.2-4.5,2.4-9.1,4.9-13.5,7.4-7.8,4.4-16,8.7-21.9,15.5s-9.3,15.1-12.5,23.4c-3.6,9.5-7.2,19.1-10.9,28.6-4.1,10.9-8.2,21.8-12.2,32.7-.4,1.2,0,2.5.7,3.4h0c-.3,3.2,2,6.4,3.6,8.9,1.7,2.7,3.7,5.2,5.8,7.6,2,2.2,4.1,4.2,6.4,6,1.2.9,2.5,2.1,3.9,3-1.3.7-2.7,1.5-4,2.2-5.4,3-11.8,5.6-14.4,11.6-2.6,5.8-1.6,12.8-1.3,19,.3,4.9.7,9.9,1.3,14.8-20.2,5.8-38.6,17.2-55.8,28.9-17.8,12.1-34.8,25.6-50.3,40.6-31.3,30.2-56.2,67.6-67.3,109.9-5.7,21.9-7.3,44.5-4.7,67,1.4,12.1,3.5,24.1,4.4,36.2.8,10.8.6,21.6-.6,32.3-2.3,20.7-8.7,41.1-18.2,59.6-4.9,9.5-10.7,18.6-17.2,27.1-6.2,8.2-12.9,17.3-11.7,28.2,1.1,10.5,8.2,18.6,16.3,24.7,8,5.9,17.5,9.4,25.2,15.7,8,6.4,11.7,15.4,13.2,25.3,1.3,8.5.8,18,6.8,25,2,2.4,4.6,3.8,7.6,4.3-.2.4-.3.9-.5,1.3-1.3,3.6-2.2,7.4-2.7,11.1-.8,6.4-2.1,14.2,2.3,19.6,1.7,2.2,4,3.8,5.9,5.8s3.5,4.2,4.9,6.6c2.8,4.8,4.7,10,6,15.3,2.9,11.5,3.4,23.3,5.6,34.9,2.3,11.9,8.3,21.8,18.6,28.4,21.9,13.9,48.5,7.9,71.9,2.1,20.9-5.1,48.7-10.4,65,8.1,8.4,9.6,10.9,23.2,12.8,35.4,2.5,16.1,4.3,32.3,7.3,48.4.2,1.3,1,2.2,2,2.8.5.7,1.2,1.2,2.2,1.4,8.8,2.2,18.3,2.2,27.3,2.5s18.1,0,27.1-.5c18.2-1.1,36.4-3.4,54.3-7,35.9-7.1,70.8-19,104.2-33.9,9.4-4.2,18.8-8.7,27.9-13.5,9.2-4.8,18.4-9.6,26.6-16.1,1.5-1.2,1.5-3.1.7-4.7v-1.8c-4.7-28.6-8.3-57.4-10.5-86.4-2.2-28.6-3.7-57.8.9-86.2,4.4-27,14.9-52.3,25.4-77.3,10.6-25.4,20.4-50.8,25.6-77.9,5.9-30.7,7.6-62.8,1.7-93.6h0c2.3-.2,4.5-.6,6.7-1,1.6-.3,3.4-.6,5.2-1.1,1.6,0,3.1-.3,4.8-.9,1.6-.5,3.7-1.3,5-2.6.4,0,.9,0,1.3-.5,2.2-2.6,4.2-5.7,6-8.6,1.9-3,3.6-6.3,4.2-9.8,0-.6,0-1.1-.2-1.6,0-.2,0-.4.2-.6,1.6-1.2,2.3-3.6,2.9-5.4,0-.4,0-.7,0-1,.5-.6.7-1.5.2-2.4-3.4-6.2-7-12.3-10.5-18.5-1.5-2.6-3.7-5.8-6.5-7.1.2-.4.3-1,.3-1.5,0-3.2-4.2-5.5-6.3-7.2-3-2.5-6-5.1-9.1-7.4-1.8-1.3-4.1-2.6-6.2-2.1v-.4c-.9-2.9-3.4-4.7-5.7-6.5-1.3-1-2.7-2-4.1-3,.3-2.8-.3-5.5-.7-8.3-.5-3.2-1-6.3-1.7-9.5-.6-3-1.3-5.9-2.1-8.9-.4-1.3-.7-2.8-1.2-4.2,2.4,1,4.8,1.9,7.2,2.6,2,.6,4.5,1.5,6.8,1.7.3.3.8.5,1.3.5,2.4-.3,4.4-1.5,6.5-2.5s4.2-1.9,6.3-2.9c3.6-1.6,8-3.2,11.2-5.7,1.7,0,3.6-1.6,4.9-2.5,1-.7,2.1-1.5,3.1-2.4.3,0,.6,0,.8-.2,7.5-4.5,12.1-11.5,16.1-19.1,1.9-3.7,4-7.5,2.2-11.6-.5-1.1-1.1-2.1-1.8-3.1l.4.3ZM871.5,352.4c-.2.4-.3.8-.4,1.1-.4-.5-.8-1.1-1.2-1.6.5.2,1.1.3,1.6.5h0ZM798.2,245.4v.6c0,2.2-1.2.7-2.1-.4-.2-.2-.4-.3-.6-.3v-.3c.9.3,1.8.4,2.8.4h-.1ZM754.1,249.6c1.1-1.2,2.3-2.2,3.4-3.3,1.7,2.8,4.2,6.9,5.4,8.4-.9-.5-1.8-.9-2.7-1.3-1-1.2-2.1-2.3-3.2-3.3-.2-.2-.6,0-.5.3.2.6.4,1.2.7,1.8-1.4-.5-2.8-.9-4.3-1.2.4-.5.8-1,1.3-1.4h-.1ZM756.7,301.4c1.3.9,2.9,1.2,4.2,2.2.9.6,1.6,1.3,2.3,2-.2.1-.4.3-.6.4-2.2-1.2-4.9-1.5-7.3-1.4-.6,0-.7.9,0,1,1.9.5,3.5,1.4,5.1,2.5h0c-.4.3-.7.4-1.1.7-.7-.4-1.5-.7-2.2-1-1.3-.5-2.3-.9-3.7-.8-.4,0-.6.5-.3.8.9.9,2,1.4,3,2.1.3.2.6.4.9.6-.3.3-.7.6-1,1-2-1-4.2-1.7-6.4-1.6-.5,0-.8.8-.3,1.1,1.7.8,3.3,1.5,4.9,2.4-.5.5-1,1-1.4,1.5-.3-.1-.6-.3-.9-.4-1.3-.6-2.6-1.1-4-1.2-.4,0-.6.5-.3.8.9,1.1,2.2,1.8,3.5,2.5-.4.3-.7.7-1.1,1-.2-.2-.4-.3-.6-.4-2-1.1-4.5-1.7-7-1.8,1.6-1.7,3.1-3.6,4.6-5.4,1.8-2.2,3.6-4.3,5.3-6.5,1.5-1.8,3.5-3.7,4.5-6,.6.2,1.3.3,2,.4,2.2.2,4.4.2,6.3,1.3,1.4.8,2.6,2.1,3.7,3.4-.6.4-1.2.7-1.8,1.1-1.2-1.3-2.8-2.3-4.4-2.8-1.6-.5-4.2-.9-5.7,0-.3.2-.3.7,0,.8v-.3ZM792.7,368c.5-.2,1-.3,1.6-.5,0,1.1.3,2.1.5,3.2.3,2.3.6,4.6.6,6.9s1.1.9,1.3.2c.8-3.3,1.9-7.7,1.1-11.3.4,0,.9,0,1.3-.3.2-.1.4-.3.6-.4.2,1.4.4,2.7.5,4.1,0,2.3,0,4.6.5,6.9,0,.5.9.6,1.2.2,1.1-2.2,1.3-4.6,1.4-7,0-2,0-4.1-.3-6.1.5-.3,1.1-.6,1.6-1,.3,1.6.9,3.2.9,4.6,0,2.2-1.1,5.1,0,7.1,0,.1.2.2.4,0,2.4-1.2,2.5-5.5,2.8-7.8.2-1.9.4-4.3-.3-6.2.7-.4,1.3-.8,2-1.3.2.2.3.5.5.8v.8c.5,2.4.8,4.3.4,6.8-.3,2.2-.7,4.4-.7,6.6s0,1.6.3,2.4c-.2,0-.3,0-.5.2-3.6,1.7-6.9,4-10.6,5.7-3.1,1.4-6.4,2.4-9.7,3.2-1-5.2-1.6-10-1.5-15.4,0-.3,0-.6,0-.8.5-.1,1.1-.3,1.6-.4.2,1,.5,2.1.6,3.1.3,2.2.3,4.5.8,6.6,0,.2.3.2.4,0,1.2-1.9,1.5-4.4,1.5-6.6s0-2.7-.4-4l-.3-.3ZM782.2,364.9c-3.4,1-7.4,1.7-10.7,3.3-2.6-2.9-5.6-5.4-8-8.5-2.8-3.5-5.4-7.1-7.7-10.9s-4.5-7.6-6.4-11.6c-1.3-2.6-2.3-5.9-3.9-8.6,3.6-3.2,7.2-6.4,10.6-9.8h0c.2-.2.4-.4.5-.6,1.5-1.4,3.4-3.1,4.8-4.9,6.7,18.2,17.2,35.1,30.9,48.9-3.4.7-6.9,1.8-10.2,2.7h0ZM731,280.6c2.9-4.9,5.3-9.8,8.8-14.3,1.6-2.1,3.4-4.1,5.2-5.9.6-.6,1.2-1.2,1.8-1.8,1,10.4,1.8,20.9,3.2,31.2.2,1.7.7,3,1.4,4.1-1.6,1.3-2.8,3.2-4,4.8l-5.6,7c-1.7,2.1-3.4,4.3-5,6.5,0,.1-.2.3-.3.4-.3-1.1-.6-2.3-.8-3.4.2-.4.3-.9,0-1.5-.2-.7-.6-1.4-1-2.1-.6-2.8-1.2-5.6-1.7-8.5-.6-3.3-1.1-6.7-1.5-10-.2-1.8,0-4.4-.9-6.3,0,0,0-.1,0-.2h.2ZM660.6,132.8c-.3.3-.5.7-.8,1-.5-.7-.9-1.4-1.4-2.2.7.4,1.4.8,2.1,1.2h.1ZM575.4,91.1c1.8-1.3,3.8-2.6,5.7-3.9h0c.6,3.1,1.2,6.2,1.8,9.2,1,4.8,2,9.6,3,14.5-.6.2-1.3.4-1.9.6-2.2-4.9-4.2-9.9-5.9-15-.2-.6-1.1-.5-1.1.2,0,5.6,1.1,11.1,3,16.4h-.2c-1.6-1.8-3.1-3.5-4.7-5.2-.2-.4-.4-.9-.6-1.3-1.1-2.6-2.2-5.2-3.4-7.8-.2-.5-1.2-.3-1.1.3,0,1.3.3,2.5.5,3.7-1.4-1.6-2.8-3.1-4.2-4.7,3.1-2.2,6.1-4.8,9.1-7h0ZM549.9,93.1c8.1,8.9,16.2,17.9,24.3,26.7,1.9,2,4.3,1.6,5.8,0,1.7-.2,3.3-.4,5-.7,2.2-.5,4.4-1.2,6.6-1.7,2.2-.6,3.1-2.8,2.7-4.8-.9-4.8-1.8-9.7-2.7-14.5-1-4.8-2.2-9.6-2.9-14.4v-.4c.4,0,.8.2.9.2,2.5.6,4.9,1.3,7.3,2.1,4.4,1.3,8.8,2.8,13.1,4.3,8.4,3,17,6.3,24.8,10.6,3,1.7,6,3.7,7.8,6.7,2.1,3.5,2.7,7.6,3.2,11.6,1.2,7.9,3.1,19.1,12.2,21.5.3,1.3,2.2,1.4,3,.4,1.1-1.4,2.4-2.8,3.8-3.9,4.5,9.3,9.5,18.4,13.7,27.9,2.3,5.2,4.5,10.5,6.5,15.9,1.6,4.1,4,9.6,1,13.6-2.6,3.5-5.2,7-2.8,11.5,2,3.6,5.9,5,8.8,7.7,3.4,3.2,4.3,8.4,5.4,12.8,1.4,5.6,2.7,11.2,3.7,16.9,2.2,12,3.4,24,3.8,36.2-2.2.6-4.1,2-5.4,4.1-2.1,3.3-1.9,7.3-.5,10.8,1.5,3.7,4.2,6.5,6.5,9.6,2.5,3.5,3.4,7.3,3.6,11.6.8,16-1.3,32.1-5.4,47.6-2-2-4.3-3.8-6.8-5.2-1.9-1.1-3.8-.1-4.6,1.4-1.3.6-2.4,1.9-1.8,3.5,2.7,8.1,5.8,16.5,5.3,25.2-.5,7.9-4.9,15-9.3,21.3-4.9,7-10.3,13.7-16,20-2.8,3.2-5.7,6.4-8.8,9.4-.9.9-2.4,2.5-3.8,2.6-1.4,0-1.6-1.6-2-2.8-3.2-10-6.1-20-9-30-1-3.4-5.5-3.1-6.6,0-2.5,6.9-5,13.8-7.6,20.7-1.2,3.1-2.3,6.3-3.5,9.4-.9,2.4-1.1,5.1-4.2,3.9-2.5-1-4.9-2.9-7.1-4.5-2.5-1.7-5-3.5-7.4-5.4-4.7-3.8-9.3-7.8-13.5-12.1-4.3-4.3-8.3-8.8-12-13.6-3.6-4.7-7.5-9.7-9.7-15.3-1-2.6-1.6-5.5-1.2-8.2.5-3.1,2.2-5.8,3.7-8.5,2.8-5.3,4.2-10.8,3.4-16.8-.4-3.1-1.4-6.1-2.9-8.9-.7-1.4-1.7-2.8-2.7-3.9-1.5-1.6-2.8-1.7-5-1.5-7,.8-13.6,2.8-19.9,5.9-2.2-7.3-4.7-14.5-7.1-21.7-3-8.9-5.7-18-8.2-27-5-18.2-9.1-36.6-12.2-55.1-1.7-10-3.1-20.1-4.2-30.2,2.6-2.6,7.5-2.3,10.8-2.4,5.3-.3,11.1-1.2,14.7-5.5,7.3-8.6,2.8-20.7-4.6-27.4-3.9-3.6-8.5-6.2-12.7-9.4-3.8-2.8-7.6-6.3-8.6-11.1-1.2-5.4,1.1-11,3.5-15.8,2.8-5.7,6.1-11.3,9.2-16.9l18.6-33.7v-.3ZM703.1,372.6c-.4.7-.8,1.3-1.2,2-.6-2.2-1.4-4.3-2.2-6.4,1,1.1,1.9,2.3,2.7,3.6.2.3.5.6.7.9h0ZM634.8,444.4c.3-.7.6-1.5.9-2.3.5-1.4,1-2.9,1.5-4.3.3,1.2.7,2.4,1,3.5.2.6,1.2.5,1.1-.2,0-2.7,0-5.7-.3-8.6,0-.3.2-.6.3-.9.3-1,.7-1.9,1-2.9,0,.2,0,.3,0,.5.7,3.2,1.3,7.1,3.5,9.6.4.4,1.2.2,1.3-.3.6-3-.5-6.4-1-9.4-.4-2.7-.5-5.8-1.1-8.6,0-.2,0-.3.2-.5,2,7,4,14,6.1,20.9,0,.5.3.9.5,1.4-2.3.5-4.6,1-6.9,1.5-2.5.5-5,1.1-7.5,1.6-.3,0-.5.1-.8.2v-1.3h.1ZM606.4,489.4h0c0-.1.2-.1.4-.2h.6c-.3.9-.6,1.8-.9,2.7h-.2c.2-.7-.2-1.7,0-2.3v-.2ZM603.6,486.4c-1.7,1.6-1.6,4.8-.3,6.5h0c1,2.7,4.1,4.9,6.1,6.6,2.4,2,4.7,4.2,7.2,6,0,3.7.5,7.4.8,11.1.3,4.1.6,8.3.8,12.4.2,4.1.3,8.3.5,12.4,0,2.1,0,4.4.2,6.6-1-.7-2-1.3-2.9-2-1.6-1.2-4-3.2-6.2-3.8-.2-.3-.5-.5-.8-.7-1.4-.8-3.1-.5-4.3.5-1.3,1.1-2,3-2.5,4.5-.4,1.5-.7,3.5-.2,5-.7,2.3,1,4.3,2,6.2,1.2,2.3,2.4,4.6,3.5,6.9,1,2.2,2,4.5,2.9,6.8.3.7.5,1.4.8,2-3.6,0-7.2.5-10.7.6-5.1,0-10.1,0-15.2-.3-5-.4-10-1.1-15-1.8-2.5-.4-5-.8-7.5-1.3-1.6-.3-3.2-.9-4.8-.7-.4-1.3-.9-2.6-1.3-3.9-.9-2.8-1.9-5.6-2.9-8.4-1.8-5.1-3-11-5.8-15.7.2-1.4-.4-2.9-2.2-3.6-3.3-1.3-6.6-2.4-9.8-4.1-3.1-1.7-5.9-3.8-8.7-6-.4-.3-.7-.4-1.1-.5-1.5-.8-3.7-.6-4.8,1.1-2.4,3.4-4.2,7.1-6.6,10.5-1.7,2.5-4.1,4.7-5.8,7.2-12.7-6.9-23.3-16.7-33.2-27-11.6-12-22.9-24.3-34.1-36.6-3.2-3.5-6.3-7-9.5-10.5-1.9-2.1-3.8-4.2-5.8-6.1,4.4-1.3,8.6-3.1,12.9-4.7,2.2-.8,4.3-1.6,6.5-2.4,2.4-.9,4.9-1.7,7-3.2.6-.4,1-1.1,1.1-1.8.7-1,.9-2.5-.3-3.9-1.8-2.3-3.4-4.7-4.8-7.2s-2.5-5.2-4.2-7.5c-.2-.3-.6-.6-.9-.8-.2-1.1-.9-2.1-2.2-2.3-10.8-2.2-22.2-2.3-33.2-2.1-.9-9.8-1.4-19.5-.8-29.3.3-5.1.8-10.1,1.6-15.1.5-3.4,1.5-6.9,2-10.4h.9c4.1,1.2,8,2.5,11.9,4.5,2.2,1.1,4.4,2.4,6.5,3.8,2.2,1.5,4.3,3.5,6.9,4.2,2,.5,3.4-1.4,2.9-3.1.9-2.6,1.9-5,3.5-7.2.4-.6.5-1.3.3-1.8,0-.7-.2-1.4-.8-2-3.2-3-6.5-6-9.7-9-1.6-1.4-3.1-2.9-4.7-4.3-.6-.5-1.2-1.1-1.8-1.7,7.3-1.7,14.2-3.1,21.9-2.8,4,.2,8,.6,11.9,1.4,2,.4,4,.9,6,1.3.8.2,1.6.4,2.3.5,4.3,4.6,9.5,8.7,14.3,12.9,3.4,2.9,8,7,12.7,7.8,1.3,2.2,5.4,1.9,5-1.2,0-.3,0-.6-.1-.8,10.4,5.8,19.8,12.9,29.2,20.5.5.4.9.6,1.3.7,0,.3,0,.7.2,1,0,.3,0,.5,0,.7,0,.3,0,.6.2.9,0,.5.3.8.5,1.1,0,.3.2.6.3.8-.2-.1-.4-.3-.7-.4-2.9-1.8-6-3.3-9.2-4.6-6.2-2.5-13.4-4.3-20.1-2.7-.9.2-.8,1.4,0,1.7,6.1,2.1,12.4,3.1,18.5,5.4,2.9,1.2,5.8,2.6,8.5,4.1,2,1.1,3.9,2.7,5.9,3.9.8,1.7,1.6,3.4,2.4,5.1-7.2-6.1-15.4-10.9-24.1-13.6-7.6-2.3-17.9-2.3-21.4,6.3-1.8,4.4-.7,9.2.9,13.5,1.7,4.7,4,9.2,6.3,13.6,8.8,17.2,20.6,33.2,37,43.9,7.6,4.9,16.4,9,25.4,10.5,4.7.7,9.7.4,13.5-2.7,3.7-3,4.9-7.5,4.2-12.1-.8-5.2-3.5-10.2-6-14.8-.8-1.5-1.7-3-2.6-4.5,1.5,1.2,3.1,2.4,4.7,3.5,1.1,2,2.7,3.8,3.6,5.6,1.9,3.4,3.4,7,3.9,10.9.5,3.6,0,7.4-1.8,10.6-1.8,3.1-4.3,4.6-7.1,6.6-.6.4-.7,1.6.2,1.7,3.5.6,7.1-1.6,9.3-4.1,2.9-3.4,4.3-7.5,4.4-11.9,0-4.8-1.3-9.5-3.4-13.8.4.2.9.4,1.3.6.2,0,.3.1.5.2h0c.6,1.7,1.9,2.9,2.7,4.5.9,1.8,1.4,3.9,1.6,5.9,0,.9,1.3,1.1,1.6.2.8-2.9.5-7.3-1.4-10.1.4,0,.8,0,1.2-.2.6-.2,1.2-.4,1.8-.5,2.8,3.9,5.8,7.7,8.4,11.8,1.2,2,2.5,4,3.7,6,.2.3.4.7.6,1-1.3,0-2.6.2-3.7,1.2l.2.3ZM623.8,552.3h0c.7-3.4.4-7.2.4-10.6v-4.4s0,0,.2,0c1.4-1,2.7-2.2,4.2-3,.7-.4,1.4-.8,2.2-1.1.3,0,.5-.2.8-.3.7,1.3,2.3,1.6,3.5.9,2.2.4,4.9-.8,6.6-1.8,2.1-1.1,4.5-2.6,5.4-4.8.6-.4,1-1.3,1.1-2,.2-1.7-.2-3.2-.4-4.8-.3-1.9,0-2.3,1.8-3.2,3.6-1.8,7.4-3.2,11.2-4.6,6.7-2.5,13.6-4.1,20.6-5.4,0,1.1.3,2.2.6,3.3.5,1.6,1.8,2.1,3,1.9h0c4.9,3.5,10.5-.7,13.8-4.3,1.9-2.1,3.7-4.6,6.4-5.8,2.8-1.2,6.1-.9,8.9-.2,6.7,1.5,13.1,4.4,19.5,6.7,5.9,2.1,11.8,4.2,17.8,6.2-1.4,1.2-2.7,2.5-4,3.7-2.3,2-4.9,3.6-7.1,5.6-1.1,1.1-1,2.5-.2,3.5,0,.4,0,.8.3,1.2,1.1,2.2,2.5,4,3.2,6.4.7,2.2.5,4.7,1.5,6.8.3.6.8,1,1.4,1.1.5.8,1.3,1.5,2.3,1.6,2.3.3,4.7.5,7,.5,3.6,8.6,1.4,18.8-1.7,27.3-.9,2.4-1.8,4.8-2.8,7.1-.5,1.2-1,2.3-1.5,3.5-.2.4-.8,2.3-1.3,2.5-.8.3-2.9-1-3.7-1.3-2-.6-3.9-.5-5.8.5-1.1.6-1.6,1.4-1.7,2.3-4.8,3.6-9.1,10.1-8.4,16,.7,6.6,6.2,10.9,11.8,13.6-1.9,2.2-3.5,5-5.3,7.2-2.4,3.1-5,6.1-7.6,9.1-5.1,5.9-10.5,11.5-16.1,16.8-5.7,5.3-11.6,10.2-18,14.6-1.1.8-2.2,2.1-3.3.9-1-1.1-1.5-3-2-4.3-1.3-2.9-3.2-5.5-6.4-6.2-1.4-.3-2.5.2-3.2,1.1-1.1,0-2.1.3-3,.7-2.6,1.3-4.2,3.9-5,6.7-.8,3.1-.4,6.4-.9,9.5-.4,2.1-1.2,4-2,5.9-3.2-.7-6.5-.5-9.9-.5s-8.4,0-12.5.2c-7.1,0-14.3.3-21.4.4v-9.7c0-.2,0-.3,0-.5.5-5.5-6.8-8.5-11.3-8.3-5.2.2-9.7,3.3-13.5,6.8-1.5-2.5-3.4-4.9-4.8-7.2-2.5-4.3-5-8.7-7.1-13.2-1-2.1-1.9-4.3-2.7-6.4-.9-2.2-2-4.5-2.4-6.9-.6-4.5,4.7-6.2,7.8-8,2.4-1.4,1.6-4.9-.5-5.7,0-.2-.2-.4-.3-.6-.3-.9-.5-1.8-.4-2.7,0-.8-.3-1.5-.9-2,1.3-1.1,2.5-2.3,3.8-3.5,0,.3,0,.7,0,1,0,1.2,0,2.5.8,3.5.2.2.5.3.6,0,.6-1.1.5-2.5.5-3.8v-2.7c.6-.5,1.1-1.1,1.7-1.7v2.1c0,.8,1.1.7,1.2,0,0-1.2.3-2.5.5-3.7.8-.8,1.5-1.6,2.3-2.4,5.2-5.6,10.8-11.5,15-18-1.6,5.4-2.3,11-1.8,16.6,0,.7,1.1.9,1.3.2.4-1.6.5-3.3.9-4.9.4-1.6,1.1-3.2,1.6-4.8,1-3.2,1.9-6.5,3.1-9.7,2.6-6.6,6.3-12.8,10.9-18.2,4.2-4.9,9.2-9.2,14.7-12.6,2.7-1.7,5.5-3.3,8.4-4.6,1.5-.7,3-1.3,4.6-2,1.4-.6,2.8-.9,3.8-1.9s.3-1.3-.4-1.4c-2.8-.7-6.7,1.2-9.3,2.3-3.2,1.3-6.4,2.8-9.3,4.6-5.8,3.6-11.1,8-15.5,13.2-3.6,4.2-6.8,8.9-9.4,14,0-.2-.2-.4-.3-.6,0-3.5-1.6-7.4-3.1-10.8,1.1-1.1,2.1-2.3,3.1-3.4,1.3-1.4,2.6-2.8,3.9-4.3,2,0,3.3-2.4,1.7-4.4l.3-.3ZM687.3,505.7c.8.5,1.6.9,2.4,1.3.2,0,.5.2.7.4-.9.5-1.9.8-3,1v-2.7h-.1ZM763.8,547.6c1.9,2.9,4.1,5.7,6,8.5,1.5,2.2,2.9,4.4,4.5,6.6,1.1,1.6,2,3.2,3.4,4.4-.9,3.4-1.2,7-2.1,10.4-.9,3.8-2,7.5-3.5,11.1-1.4,3.6-3.1,7.1-5,10.4-.5,1-1.2,1.9-1.8,2.9-2.8-5-6.2-10.2-10.5-13.8.9-1.6,1.6-3.4,2.3-5,1.2-2.9,2.5-5.7,3.5-8.7,3.2-8.7,4.9-17.9,3.1-26.9h0ZM748.4,612.9c1.2-1.8,2.5-3.7,4-5.2s0-1-.5-.7c-2.3,1.5-4.5,2.9-6.4,4.8,0,0,0,0-.2,0,0-.2,0-.4.2-.5.3-.9.8-1.8,1.3-2.6.9-1.5,2.2-3.3,3.6-4.5.4-.3,0-1-.5-.8-1.1.4-2,.5-3,1.2-.9.6-1.8,1.4-2.5,2.2-.6.7-1.3,1.6-1.8,2.5.3-1,.7-1.9,1.2-2.8,1.5-2.6,3.6-4.9,5.5-7.2.2-.3,0-.7-.4-.6-3.4.8-5.8,3-7.7,5.9-.2.4-.5.8-.8,1.3v-.3c0-1.7.2-3.2,1-4.7,1.4-2.6,3.8-3.6,6.1-5.2.4-.3.3-.8,0-1-3.4-1.2-7.6,1.4-9.6,4.1-.9,1.2-1.6,2.7-2.1,4.4-.2-.5-.3-1-.3-1.6-.4-3.9,2.5-7.5,5-10.7.6,0,1.3,0,2-.4h.4c.5,0,1,.3,1.4.5,1,.3,1.9.7,2.9.9,1.4.2,2.7,0,3.9-.4,1.3,2.7,3.1,5.3,4.6,7.9,1.3,2.3,2.6,4.6,3.8,7-1.3.8-2.6,1.7-3.9,2.4-2.3,1.2-5,2.3-7.1,4v.2ZM751.3,629.2l3.8,5.8c.7,1,1.3,2,2.1,3-1.2,1.8-2.1,3.9-3.2,5.7-1.5,2.5-3,5-4.7,7.4-3.4,4.9-7.4,9.3-11.7,13.4-4.2,4-8.9,7.5-13.8,10.5-2.6,1.6-5.2,3.1-8,4.5-1.3.6-3,1.3-4.4,2.2-3.2-3.7-7.9-6.4-11.7-9.2-.9-.7-1.8-1.3-2.8-2,2.8-1.7,5.5-3.9,8-5.8,3.5-2.6,7-5.4,10.3-8.3,6.4-5.5,12.3-11.6,17.8-18.1,2.7-3.3,5.2-6.7,7.6-10.2,1.7-2.4,3.8-5.1,5.2-7.9,1.7,3.1,3.5,6.1,5.5,9h0ZM758.3,538c-1.4,0-2.8,0-4.3.2.7-1,1.4-2,1.7-3.2,0-.6-.5-1.3-1.1-.9-1.1.7-1.9,1.7-3,2.5-.4.3-.8.6-1.3.9,0-.4,0-.8,0-1.2.7-.7,1.3-1.5,1.8-2.3,1-1.4,1.8-3,2.3-4.6.2-.6-.6-1.1-1-.6-1.1,1.2-2.1,2.4-3.2,3.4-.3.2-.5.5-.8.7,0,0,0-.3-.2-.4,0,0,0-.2,0-.3,2.4-2.1,4.8-5.2,5-8.2,0-.4-.5-.7-.8-.4-1.3,1-2.3,2.3-3.4,3.5-.7.7-1.5,1.4-2.3,2.1-.5-.8-1.1-1.6-1.8-2.4,1.9-1.4,3.6-3.1,5.3-4.6,1.4-1.3,2.9-2.7,4.2-4.2,1,3.6,2,7.2,2.9,10.8.7,3.2,1.3,6.3,1.9,9.5-.4-.2-1-.4-1.6-.4h-.1ZM673.2,682.1c2.3-3.2,3.2-7.5,3.4-11.3,0-2.3,0-4.7.6-6.9.7-1.9,1.8-2.5,3.4-2.9.4,0,.7.4.9.7-1.8,1.8-2.6,4.4-2.8,7-.2,1.9,0,3.8.2,5.7,0,2-.2,3.9,0,5.9,0,.3.4.4.6.2,1.9-2,1.9-5.3,2.2-7.9.3-2.8.5-5.2,1.9-7.3.3.8.6,1.6.9,2.3-1.2,2.3-.9,5.5-.7,7.9,0,.4.5.6.8.2.9-1.4,2-3.1,2.6-4.9,0,0,.3.2.4.3.5.5.9.9,1.4,1.3l.2.2c-2,3.5-3.7,7.3-5.6,10.9-1,2-2.2,4-3.1,6.1-.8-.9-1.6-1.8-2.4-2.7-1.5-1.7-2.9-3.4-4.6-4.9h-.2ZM674.4,693.5c-5.1,1.7-10.3,3-15.7,3.5-3.5.3-7,.4-10.5.3-3.7-.2-7.4-.9-11.1-.9h0c-3.1-2.4-6.6-4-9.6-6.4-1.3-1-2.5-2.2-3.7-3.3,7.3,0,14.5-.2,21.8-.4,4.2,0,8.4,0,12.5-.3,3.4,0,6.9,0,10.2-.9,1.1,2.3,3,4.2,4.5,6.2.5.7,1,1.4,1.6,2.1h0ZM612.4,669.3c1.5,0,3,0,4.5-.3,0,.9-.2,1.7-.3,2.6-2.4-.9-5.5-.6-8-.6s-2.6-.2-3.9-.3c2.1-1.8,4.3-3.4,7-4.2,1.6-.4,3.3-.6,4.9,0h-.3c-1.5.6-2.8,1.3-4.2,2.2-.2.2,0,.5,0,.5h.2ZM554.9,644.8c-.6,2.4,2.8,5.1,5.1,2.9,1.5-1.4,2.4,3.3,2.5,3.9.3,2.7.3,5.4.5,8,.3,6,.7,11.9,1,17.9,0,2.6.4,5.3.4,7.9s-.7,3.5-3,4.6c-3.4,1.6-7.3,4.8-4.9,9,.2.4.5.6.8.7,1.4,1.7,4.1,2.3,5.1,4.5,1.1,2.5-1.9,6.6-3,8.7-2.9,5.6-5.9,11.1-9.3,16.4-3.1-1.1-6.3-1.9-9.6-2.3-.5,0-.9,0-1.2.4-1.3.5-2.3,2.3-1.6,3.8,1.1,2.6,3,5.2,2.9,8.1,0,3.1-2.6,3.8-5.2,4.3-6.4,1.3-12.8,2.3-19.1,3.6-3.2.7-6.4,1.3-9.6,2-2.3.5-5.2,1.4-7.6,1-.6-.6-1.4-1-2.2-1-3.1-2.4-1.1-8-2.9-11.1-.2-.4-.6-.7-.9-.8-.5-.8-1.4-1.5-2.3-1.5-3.6,0-7.4,3.1-9.6,5.8-1.5,1.8-2.9,3.9-3.6,6.2-3.4-1.6-6.8-3.2-10.1-5.2-4-2.5-7.8-5.2-11.2-8.5-3.3-3.1-6.5-6.5-9.1-10.3-1.3-1.8-2.5-3.7-3.6-5.7-.9-1.5-1.6-3.3-2.6-4.8,1.3-.9,2.5-2,3.7-3,1.6-1.3,3.4-2.4,4.5-4.2.9-.6,1.6-1.9,1.2-3-.3-.8-.6-1.7-.9-2.5-.4-.9-1-1.7-1.6-2.5-.3-.4-.7-.7-1.1-.9h-.1c-2.4-1.9-5.8-1-8.5-.2-1.8.5-5.1,2-6.9.5s-1.8-6.2-2.1-8.3c-.5-3.4-1-6.8-1.4-10.2-1.5-12.7-2.1-25.4-1.8-38.2,4.4-.6,8.9-.4,13.4-.4s1-.2,1.3-.4h0c1.3-.2,2.6-.5,3.2-1.7.2-.3.2-.7.2-1.1,1.3-5.2,0-10.9-4-14.6-.9-.9-2-1.6-3.1-2.3-.9-.6-2.5-1.2-3.1-2.2-.6-1.1.4-2.5.8-3.5.7-1.5,1.4-2.9,2.2-4.3,2.8-5.2,6.1-10.2,10.1-14.7,1.9-2.2,4-4.4,6.2-6.4,2.1-1.9,4.7-3.6,6.6-5.7.6.4,1.2.7,1.9,1.1-5.6,5.4-10.3,11.8-13.8,18.8-.5,1.1.9,2,1.6.9,4.5-6.6,9.6-12.5,15.3-18,.5.2.9.5,1.4.7-.6.7-1.3,1.5-1.9,2.2-1.6,1.7-3,3.6-4.5,5.4-.6.7.3,1.7,1.1,1.1,2.5-2.4,5.4-4.8,7.8-7.5,1.6.7,3.3,1.4,5,2,.3.2.6.4.9.6,1.5,5.4,8.5,5.4,12.7,3.4,2.7-1.3,2.9-4,2.9-6.8s.4-5.2-.9-7.1c.8-.8,1.6-1.6,2.4-2.4,1,1.8,2.2,3.5,3.2,5,1.8,2.9,3.7,5.9,5.6,8.8,1.9,2.9,3.9,5.7,6,8.5,1.2,1.6,2.5,3.4,3.8,5,0,.2,0,.4.1.6,3.1,4.7,9,7.1,14,9.2,5.6,2.3,11.4,4,17.3,5.2,4.3.9,8.9,1.6,13.5,2.1,0,.3.2.5.3.8,1.9,3.7,5.4,9,2.2,12.9-1.9,2.4-5,5.7-3,8.7h.2ZM548.2,734.1c-.8,1-1.5,2-2.2,2.9-.3-1.4-.7-2.8-1.4-4.2,1.2.4,2.4.8,3.6,1.2h0ZM482.4,753.8c-.3-.6-.6-1.3-.9-1.9h0c.3-.5.6-.9.8-1.3.1.4.3.7.4,1.1.4,1.2.8,2.3,1.5,3.3.2.3.7.2.7-.2.1-1.2,0-2.4-.3-3.6-.2-1-.3-2.2-.8-3.1.4-.7.9-1.4,1.5-2,.2.7.4,1.3.5,1.9.6,1.8,1.3,3.1,2.4,4.6.4.5,1.2,0,1.1-.5,0-1.7-.3-3.3-.6-5-.2-1.2-.3-2.6-.6-3.8.3-.2.5-.4.8-.6.3-.2.6-.4.8-.5,0,1.5.1,3.1.3,4.4.3,2.2,1.2,4.3,2.6,5.9-3.1,3.5-6.3,7-9.4,10.5-.5-.8-1.1-1.5-1.6-2.3-1-1.5-2-3-3.1-4.5.5-.5,1-1,1.4-1.5,0,0,0,0,.1.2.6,1.2,1.2,2.7,2.4,3.3.4.2.9,0,1-.4.3-1.4-.5-2.7-1.1-3.9h.1ZM498.5,755.7c2,.4,4.2.3,6.2,0,4.4-.6,8.8-1.5,13.2-2.3,4.4-.8,8.7-1.6,13-2.4,1.8-.4,3.9-.6,5.8-1.1,0,0,0,.2-.2.2-1.5,1.5-3.3,2.8-5.1,4-3.9,2.5-8.3,4.2-12.8,5.5-9.1,2.7-18.6,4-28.1,4.2,2.6-2.7,5.2-5.4,7.8-8.1h.2ZM422.1,684.5c.5,3.7,1,7.3,1.6,10.9.4,2.1.9,4.1,2.1,5.8-1.7,1.4-3.2,3.5-4.5,4.9-1,1.1-2.2,2.2-3.4,3.4-2-9.3-4-18.5-5.3-28-.7-5.2-1.2-10.5-1.6-15.7-.2-2.7-.5-5.4-.7-8.1-.1-2.1-.2-4.2-.7-6.2,2.4-1.5,4.5-3.9,6.6-5.6,1.2-.9,2.4-1.8,3.6-2.7-.3,13.8.4,27.6,2.1,41.3h.2ZM390.2,482.1c2.5,1.3,5,2.5,7.5,3.7,0,0,.2,0,.2.1-.1.2-.3.4-.4.5-2.8-1.2-5.8-2.1-8.6-3.1-2.8-1-5.6-2.2-8.5-3,5.5-7,10.7-14.2,15.3-21.9,2.4-4.1,4.7-8.3,6.9-12.5,1.6-3.2,3.6-6.6,4.9-10.1.2,0,.4,0,.7.1,10.8.5,21.5,2.2,32.2,3.2,1.1,4.6,3.8,9,6.6,12.9-1.9.5-3.9,1.2-5.7,1.9-.6-2.4-1.9-4.8-2.8-6.9-1.1-2.8-2.7-4.7-5.9-5.1-3.5-.5-7.1-.6-10.6-.5-3.9,0-7.7.7-11.5.7s-.6.7-.1.8c3.1.7,6,2,9.1,2.7,2.9.6,5.8,1.2,8.8,1.7,1.1.2,2.9,0,3.8.5.9.6,1.2,2.6,1.6,3.5.1.3.2.5.3.8-5-4.6-18.3-3.6-23.1-3.8-.6,0-.7.9-.1,1.1,3.6,1.1,7,2.8,10.6,4,1.2.4,8.8,1.9,8.4,3.7v1c-1.3.4-2.6.9-3.8,1.4-.4-.2-.8-.3-1.2-.5-2.2-.9-4.4-1.7-6.6-2.4-3.9-1.3-8.4-3.3-12.5-3.4-1.3,0-1.5,1.6-.6,2.2,3.3,2.4,7.8,3.5,11.6,5.1,1.2.5,2.3,1,3.5,1.5-.5.3-.9.7-1.4,1-2.2-1.1-5-1.4-7.3-1.9-3.1-.7-6.2-1.3-9.4-1.3s-.8.9-.3,1.2c2.7,1.8,5.6,3,8.6,4.2,1.4.6,2.8,1.3,4.3,1.8l-.6.6c-.4.4-.7.8-1.1,1.1-2.6-.9-5.2-1.5-7.8-2.2-2.1-.5-5-1.8-7.1-.9-.2,0-.2.4-.1.6,1.1,2.1,4.3,2.8,6.3,3.7,1.8.8,3.6,1.6,5.5,2.3-.6.7-1.3,1.4-1.9,2.2-1.5-.5-2.9-1-4.4-1.5-2.2-.8-4.4-2.1-6.8-2.3-.4,0-.8.6-.5.9,1.5,1.9,4,3.1,6.1,4.2,1,.5,2,1.1,3.1,1.6-.4.5-.8,1-1.3,1.5-1-.3-2.1-.7-3.1-1-2.7-1-5.5-2-8.3-2.5-1-.2-1.5,1-.7,1.6,2.4,1.6,5.1,2.8,7.7,4,.6.3,1.3.6,1.9.9-.5.7-1.1,1.3-1.6,2-.5-.1-1-.3-1.5-.4-2.5-.8-5.1-1.5-7.6-2.2-.6-.2-1.1.8-.5,1.1l-.2-.2ZM402.7,429.8c-.1.1-.2.3-.3.5-2.3,3.8-3.8,8.1-5.7,12.1-2,4.1-4.2,8.2-6.5,12.2-3.6,6.1-7.3,12.1-11.5,17.9-2.3-9.9-3.7-20-4.2-30.1-.3-6-.3-11.9,0-17.9.3-5.3,1-10.6,1.4-16,5.1-6.4,10.4-12.7,16.1-18.6,2.9-3,5.9-5.9,8.9-8.8.8-.8,1.8-1.6,2.7-2.4-.4,2.1-.7,4.1-1,6.1-.9,5.3-1.5,10.7-1.7,16-.4,9.7.1,19.5,2,29.1h-.2ZM408.1,483.9c.6-.2,1.1-.9,1.2-1.5.5-.7,1.1-1.3,1.7-2,2.4-2.7,4.8-5.3,7.3-8,.9-1,1.9-1.9,3-2.9,3.8,5.9,9.1,11.2,13.6,16.5,5.7,6.5,11.4,13,17.2,19.5,10.6,11.8,21.2,23.8,33.3,34.1,6.2,5.3,12.8,10,19.9,13.8-.8.9-1.5,1.8-2.3,2.6-3.1,3.3-6.2,6.6-9.3,9.8-6.1,6.3-12.6,11.9-19,17.9-1.8-1.1-3.6-2.2-5.5-3.3-.1,0-.3-.2-.5-.3-3.7-2.2-7.4-4.3-11-6.7-6.8-4.5-13.2-9.6-19.1-15.2-11.8-11-21.8-23.9-29.7-38-2.2-4-4.2-8.1-6.1-12.2-1.6-3.6-2.8-7.6-4.6-11.2,3.3-4.3,6.4-8.7,9.8-12.9h.1ZM520.9,584.3c-3-8.4-7.6-16.8-14.2-23.1.4-.5.7-1,1.1-1.4.2-.3.5-.6.7-1,.8.9,1.7,1.7,2.3,2.4,1.6,1.9,3.2,3.9,4.8,5.8,1.5,1.9,2.9,4,4.2,6.1s2.3,4.3,4.2,5.9c0,0,.4,0,.4,0,.9-4.6-2.2-10.2-4.2-14.3-1.2-2.4-2.5-4.7-4.2-6.8-1.1-1.4-2.2-3.2-3.7-4.5.2-.4.4-.9.6-1.3.3-.2.5-.4.8-.6,2.3,3.3,5.8,5.8,7.9,9.3,1.2,1.9,2.2,4,3.1,6.1.7,1.8,1.1,3.9,2.2,5.5.4.5,1.1.5,1.3-.2.6-2,0-4.2-.4-6.2-.5-2.4-1.3-4.7-2.3-7-1.7-3.8-3.7-8.6-7.1-11.3.2,0,.3.2.5.2,1.3.7,2.4,1.5,3.5,2.5,2.2,1.9,3.8,4.2,5.5,6.5,2,2.8,3.1,6.1,3.8,9.4.8,3.4.2,7.5,1.6,10.7.5,1.2,2.2,1.4,2.6,0,1.1-3.9,0-9.1-.6-13-.5-3.7-1.3-7.7-2.9-11.1-.9-1.8-2.2-3.5-3.7-5,.4.2.8.4,1.3.6,1.6.9,3,2,4.2,3.4,2.4,2.7,3.8,6.1,4.9,9.5.6,2,1.3,4,1.8,6,.6,2.2.6,4.4,1.1,6.6.4,2,3.2,1.4,3.3-.5.2-2.1,0-4.2,0-6.3s0-4.1-.2-6.1c-.5-3.9-1.9-7.6-4-10.9-1.9-2.9-4.4-5.5-7.6-7.1-.7-.4-1.5-.7-2.3-1-.8-1-2.1-2-2.8-2.8-.9-1.1-1.6-2.7-2.6-3.9,0,0,0-.2.2-.4,4.6,4.6,11,8.3,17.2,9.7.6,5.1,2.8,10.1,4.4,14.9.9,2.7,1.7,5.3,2.7,8,.6,1.6,1,3.3,1.7,4.9-2.5,2.2-4.7,4.6-7.2,6.8-3.3,3-6.6,5.9-9.9,8.7-6,5-12.3,9.6-18.6,14.2-1.4-2-3-4-4.4-6-2-2.8-3.9-5.7-5.9-8.6-2-2.9-3.8-5.8-5.8-8.7-1.2-1.8-2.4-3.9-3.9-5.7.8-.8,1.5-1.6,2.3-2.5,0,0,.1,0,.2-.2,0,0,.1.2.2.3,1.2,1.7,2.5,3.4,3.7,5.1,2.3,3.1,5,5.9,7.3,8.9.6.8,1.8-.2,1.3-1-2-3.5-3.7-7.2-5.7-10.7-1.1-1.8-2.2-4.3-3.7-6.3.4-.5.8-.9,1.2-1.4,5.2,6.7,11,12.9,16.3,19.5.5.6,1.6,0,1.3-.8l.2.3ZM484.2,590.1c-1.5.6-3.5.8-5.1.3.3-.3.4-.7.6-1.1,1.5-1.2,3-2.5,4.5-3.8,0,1.6.2,3.2,0,4.6ZM428.6,618.2c-2.9.9-5.4,1.9-8.2,2.2,1.8-5.5,4-10.8,6.7-16,1.6-3.1,3.3-6,5.2-8.9,1.4-2.2,3.4-4.4,4.8-6.8h0c3.3-1.4,6.4-3.1,9.9-4.3,1.7-.6,3.5-1,5.3-1.6-.6.5-1.1,1-1.7,1.5-2.4,2.1-4.7,4.4-6.8,6.9-4.3,4.8-8,10.1-11.1,15.8-1.8,3.3-4.3,7.5-4,11.2h0ZM431,623.1h0c1.9,1.8,4.5,2.7,6,4.8,1.7,2.2,2.3,5,1.8,7.7h-.2c-.1-1.4-.6-2.8-1.1-4-1.1-2.4-2.9-4.9-5.4-6-1.3-.6-2.3.8-1.5,1.9,1.4,1.8,2.7,3.4,3.3,5.6.2.6.2,1.2.3,1.8h-.6c-.4-1-1-2-1.4-2.8-.9-1.4-2-3.2-3.6-3.7-.3,0-.5.2-.4.4.3,1.6,1.5,3.2,2.1,4.7.1.4.3.8.4,1.3h-1.9c-.3-.6-.7-1.2-1-1.7-.9-1.5-1.9-2.5-3.2-3.8-.4-.4-1,0-.7.5.8,1.4,1.4,3.1,1.9,4.6,0,.2.1.4.2.6h0c-.9-1.5-2.2-3-3.1-4.2-.9-1.3-1.8-2.7-2.8-4.1,3.9-.2,8-1.3,10.9-3.8v.2ZM426.4,711.2c1.7-1.7,4.3-4,5.2-6.6,1.7.2,3.4,0,5-.2,1.4-.3,2.8-.8,4.3-1.2,1.3-.3,2.5-.3,3.7-.5,0,.2.1.4.2.6-1.2.7-2.3,1.7-3.5,2.6h-3c-2.2,0-4.4,0-6.5.5-1.1.3-1,1.8,0,2.1,1.7.5,3.5.6,5.2.7-.3.3-.6.6-.8.9,0,0-.1.2-.2.3-.2.2-.4.4-.7.6h-.4c-1.8-.2-4-.6-5.7,0-.6.2-.7,1-.2,1.3,1,.7,2.3,1.1,3.6,1.4-.4.4-.7.8-1.1,1.1-2.3-.8-4.7-1.4-7.1-1.8.7-.6,1.4-1.3,2-1.9h0ZM435.5,718.9c.3-.4.6-.8,1-1.3.4,1.1,1,2.1,1.4,3.1,1.1,2.2,2.4,4.4,3.8,6.5,2.8,4.3,6.1,8.3,9.8,11.8,6,5.6,13.3,10.9,21.3,13.7-.6.7-1.2,1.4-1.8,2.1-1.3,1.4-2.7,2.8-3.8,4.4-1.1-.6-2.3-1-3.4-1.5-2.1-1.1-4.2-2.3-6.3-3.5-4.1-2.4-7.9-5.3-11.4-8.6-3.4-3.2-6.6-6.6-9.3-10.4-2.3-3.1-4.1-6.8-6.3-10,1.8-1.9,3.4-4.2,5-6.3h0ZM543.3,613.7c-5.5-1.2-10.8-2.8-16.1-4.6-2-.7-3.9-1.5-5.9-2.2,6.2-4.1,12.1-8.7,17.9-13.5,3.4-2.8,6.7-5.7,9.9-8.8,2.6-2.5,5.4-5,7.7-7.7.2,0,.4,0,.6,0,1.3.6,2.8.9,4.2,1.3,2.4.6,4.9,1.2,7.4,1.7,5.3,1.1,10.7,1.6,16.1,2,5.2.4,10.4.5,15.7.3,3.1,0,6.4-.3,9.6-.7-5.2,5.7-10,11.8-15.5,17.3s-12.5,11.8-19.2,17.2c-5,0-10,.4-15.1,0-5.7-.3-11.4-1-17-2.2h-.3ZM613.8,553.1c-.7-1.3-1.9-2.2-3-3.2-.5-.4-1-.9-1.5-1.4,0-.2.2-.4.3-.6,1.1,1,2.3,1.8,3.2,2.5,1.5,1.2,3,2.6,4.6,3.8-1,.9-1.9,1.9-2.8,2.8s-1.2,1.1-1.8,1.7c-.6-1.4-1.3-2.7-2-4.1-.2-.4-.4-.7-.6-1.1.7.5,1.4,1,2.2,1.3,1.1.4,2-1,1.5-1.9v.2ZM420.3,368.7h0c1.4,1.9,3.4,3.3,5.1,5-3-1.5-6.1-2.9-9.2-3.9,1-1.7,2-3.3,3.1-4.9.7-1.1,1.8-2.4,2.8-3.8,1.8,2.9,5.1,5.3,7.4,7.5,3,2.8,6,5.7,9.1,8.4-.8,1.1-1.5,2.3-2.1,3.6-.7-.5-1.4-1-2.1-1.5-1.2-2.5-3-4.7-4.8-6.6-2.1-2.3-5.1-5-8.3-5.4-1-.1-1.3,1-.9,1.7h-.1ZM544.6,377.9c1.5-4,2.7-7.9,3.2-12.2.3-2.1.4-4.2.5-6.3v-.6s0,0,.2-.1c.8.1,1.6-.1,2.3-.5,0,1.3.2,2.6,0,3.8-.2,3.8-.3,7.6-.9,11.5,0,.9,1,1.3,1.4.4,1.4-3.7,2.6-7.5,3.1-11.4.2-1.5.4-3.1.5-4.8h3v4c-.2,1.7-.4,3.4-.7,5.1s-.2,3.5-.8,5.2c-.3.8,1,1.4,1.4.6.9-1.7,2.1-3.1,2.8-4.9.7-1.7,1.3-3.6,1.6-5.5.2-.9.3-1.8.4-2.7.8.9,1.3,2.1,1.6,3.4-.2,1.2-.4,2.4-.7,3.6-.7,2.6-1.6,5.1-2.5,7.6-.8,2.1-2.2,5.1-1.4,7.4.2.4.7.9,1.2.7,2.4-.9,3.7-4,4.7-6.2,1.4-2.9,2.5-5.9,3.3-9,.7-2.8,1.3-5.8,1.4-8.6,0-2.2,0-4.9-.6-7.2.3,0,.7-.1,1-.1,2.5,3.6,3.6,8.1,3.1,12.4-.6,5.4-4.1,9.7-6,14.6-.9,2.4-1.3,4.9-1.3,7.3-5,1.6-9.7,4-14.6,5.8-4.5,1.7-9.2,3-13.9,4.1.2-1.4.4-2.8.5-4.3.3-3.3.6-6.6,1-9.9.8-6.3,2.6-12.5,3.2-18.9.3-.2.6-.4.9-.6,0,1.2,0,2.5,0,3.7-.2,4.2,0,8.4-.2,12.6,0,.6.9.7,1.1.1h.2ZM547.8,443c5.3,6,10.4,11.9,14.4,18.9.7,1.3,1.4,2.6,2.1,3.8-1.1-1.5-2.2-3-3.4-4.4-5.4-6.8-11.9-11.9-19.2-16.4-.4-.2-.8.3-.5.6,6.2,5.3,11.7,11.7,16.5,18.2,4.1,5.5,7.1,11.4,10.1,17.4h-.6c-3.1-4.9-6.4-9.6-10-14.2-4.3-5.4-9.2-10.1-14.4-14.7-.4-.4-.9.2-.6.6,6.8,8.5,13.3,17.5,19,26.8-.3-.1-.6-.3-.9-.4-.7-.3-1.3-.7-1.9-1-1.3-1.9-2.7-3.8-3.9-5.6-2.5-3.5-5.1-6.9-7.8-10.2-2.8-3.4-5.7-6.7-8.8-9.8s-6.7-5.8-10.3-8.6c-.6-.5-1.2.5-.8,1,2.9,3.3,5.6,6.8,8.5,10.2,2.8,3.2,5.5,6.4,8.1,9.8,2.5,3.3,4.9,6.6,7.1,10,1.2,1.9,2.3,3.9,3.5,5.8-1.3-.5-2.6-1.1-3.9-1.7,0-.3-.2-.5-.3-.8-2.4-4.9-6.2-9.5-9.5-13.8-3.4-4.4-7.1-8.7-11-12.8-3.8-4-7.8-7.7-12.1-11.1-2.1-1.7-4.3-3.4-6.5-5-1.4-.9-2.8-2.1-4.3-2.9-.8-1.4-1.5-2.8-2.2-4.3,1.8,1.2,3.7,2.5,5.5,3.7,4,2.8,7.9,5.7,11.9,8.4.3.2.7-.2.5-.5-1.4-1.8-2.7-3.6-4.3-5.3-1.9-1.9-3.9-3.7-5.9-5.4-1.8-1.6-3.7-3.1-5.6-4.5-1.6-1.2-3.2-2.8-5.2-3.3-.2-.6-.5-1.2-.7-1.8,2.1,1.1,4.2,2.2,6.2,3.4,3,1.9,5.9,3.9,8.8,5.9,5.8,4,10.4,9.3,16.1,13.5.4.3.9-.3.7-.7-3.3-6.2-9.3-11.1-14.6-15.6-5.3-4.6-11.7-9-18.2-11.8-.1,0-.2,0-.3-.1,0-.8,0-1.6.2-2.4,6.2,3.1,12.4,6,18.2,9.9,6.1,4.1,11.5,9.2,17.6,13.3.3.2.7-.2.5-.5-3.5-6.6-9.7-11.9-15.6-16.3-3.2-2.4-6.7-4.8-10.4-6.9,2.5,1.1,5,2.2,7.5,3.5,5.2,2.7,10.3,5.8,15,9.4.5.4,1.1-.2.7-.7-4.2-4.4-8.7-8.5-13.8-11.8-.8-.5-1.5-1-2.3-1.5,11.5,4.5,20.4,13.3,29.6,21.5.5.9,1.2,1.7,1.9,2.5,2.7,3.3,5.3,6.8,7.8,10.3,3.6,5.1,7.1,10.4,10.1,15.9-4.6-7.4-10.6-13.9-17.8-18.5-.4-.3-.8.3-.5.6v.4ZM538.7,472.5c-10.7-7.6-19.3-17.9-26.2-29.2.3.2.5.5.8.7,4,3.7,7.9,7.5,11.7,11.5,3.7,3.9,7.2,8,10.4,12.3,1.2,1.5,2.2,3.1,3.3,4.7ZM590.9,459.7c-.2,0-.5.2-.7.3-5.8-3.7-11.6-7.3-16.8-11.8-5.1-4.4-9.8-9.2-14-14.3-7.6-9.2-13.6-19.7-17.7-31,4.6-1.1,9.1-2.5,13.5-4.2,4.5-1.8,8.9-3.8,12.7-6.7,2.1,6.6,6.5,12.7,10.6,18.1,6.9,9,14.6,17.3,23.3,24.5,4.3,3.6,8.9,7,13.6,10.2,1.7,1.1,3.6,2.5,5.7,3.5-2.7,1.1-5.5,2.2-8.2,3.2-7.3,2.7-14.6,5.5-21.9,8.2h0ZM493.1,142.8c3.1-8,5.9-16.3,10.9-23.3,4.8-6.8,12.2-10.9,19.2-14.9,4.9-2.8,9.8-5.6,14.7-8.5,0,0,0,0,.2,0-3.3,6-6.7,12-10,18-5.5,9.9-11.9,19.7-16.2,30.2-1.6,3.8-2.4,7.7-2.5,11.4,0,.2-.1.4-.2.6-.5,1.8-1.1,3.7-1.7,5.5,0,.2-.1.3-.2.5-2.4,1.7-4.8,3.6-7.1,5.4-3.9,2.9-7.7,5.8-11.6,8.8-4,3.1-8,6.2-12.1,9.2,5.5-14.3,11-28.6,16.5-42.9h.1ZM480.9,209.8c-1.8-2-3.5-4.1-5-6.3-1.1-1.6-2.1-3.5-3.3-5.1,6.8-5.2,13.7-10.2,20.6-15.2,3.7-2.8,7.5-5.5,11.2-8.3,2.8-2.1,5.7-4.1,8.4-6.3.9,1.4,1.9,2.8,3.1,4.1,3.3,3.6,7.5,6.3,11.5,9,3.6,2.5,7.6,5.1,10,8.9,1.7,2.7,2.7,6.6,1.3,9.7-.8,1.7-2.2,2.6-3.8,3.1,1-5.4-2.3-10.9-6.6-14.2-2.8-2.2-6-3.6-9.2-5.2-3.3-1.7-5.6-3.9-7.9-6.8-.3-.4-1.1,0-1,.4.2,5.4,5.6,9.4,9.6,12.4,3.6,2.7,9.8,6.9,8.3,12.1,0,0-.2,0-.3.1-.8.4-1.3,1.2-1.5,2.1h-.2c-1.3-4.3-4.8-7.9-8.2-10.5-2.3-1.8-4.7-3.5-6.8-5.5-.4-.4-2.8-3.5-3.7-2.4-2,2.6,3.9,8,5.5,9.8,1.7,1.8,3.3,3.7,4.8,5.7.9,1.3,1.6,2.6,2,3.9-1.1.3-2.1.7-3.1,1.2-1.9-2.3-4-4.4-6-6.4-3.1-3.2-6-6.8-9.8-9.3-.5-.3-1.4.2-1.1.9,1.7,4.1,4.6,7.7,7.1,11.4,1.6,2.4,3.3,4.9,5.1,7.3,0,.1-.2.3-.3.4-.2,0-.4.2-.7.3-.3.1-.5.2-.8.3-.2-.2-.4-.4-.6-.6-1.4-1.7-2.9-3.4-4.4-5s-3.3-3-5-4.4c-1.5-1.2-3.1-2.6-5-3-.4,0-.8.3-.7.7.5,1.9,2,3.4,3.1,4.8,1.3,1.6,2.5,3.3,3.8,5,1.3,1.6,2.5,3.3,3.7,4.9-.3.2-.6.3-.9.5-1.5-2.2-4.1-4.3-5.5-5.6-2.3-2-5.8-5-9.1-4.9-.2,0-.4.2-.3.4,1.1,2.9,4.3,5.3,6.3,7.6,1.3,1.4,2.5,2.9,3.7,4.4.1.2.3.4.4.6-1,.5-2,1.1-3,1.6-.6-1.9-2.4-3.5-3.9-4.8-1.8-1.6-3.9-2.8-6-4-.8-.4-1.7.7-1,1.3,1.8,1.4,3.3,3.1,4.6,5,1,1.4,1.7,3.2,2.9,4.4-.3.2-.6.3-.9.5-1-2.3-3.3-3.4-5.2-5.1-2.1-1.8-4.1-3.8-6-5.8h-.2ZM473.2,246.7c.1-2.2.5-4.6,2.2-6.2,2.1-2,5-3.2,7.5-4.6,6.9-3.8,13.8-7.5,20.6-11.4,2.4-1.3,4.9-2.6,7.3-4,2.4,21.9,6.2,43.7,11.4,65.1,3,12.2,6.4,24.3,10.2,36.2,3.4,10.6,6.9,21.2,11.8,31.2-1.6.5-3.3,1.2-4.8,1.7-3.6,1.1-7.1,2.5-10.6,3.8-3.4,1.2-6.9,2.3-10.3,3.3-2.9.8-6,1.4-8.9,2.4-2.8-4.7-5.8-9.2-8.5-13.9-3-5.3-5.7-10.6-8.2-16.1-5-10.9-9.2-22.2-12.3-33.8-2-7.2-6.3-33.1-6.5-35.3-.6-6-1-12.2-.8-18.3h-.1ZM637.7,994.4h0c-1-.8-2.3-1.4-3.3-2.1-8.4-5.6-15.7-12.9-21.4-21.2-5.7-8.2-10.2-17.3-13.8-26.6-1.8-4.8-3.4-9.6-4.9-14.5-.8-2.5-1.5-4.9-2.2-7.4-.7-2.6-.4-4.1,1-6.3,3.1-5,6.7-9.8,10.4-14.4,1.7-2.1,3.5-4.1,5.3-6.1.6,1,1.1,2,1.6,3,7.2,15,14.5,29.9,21.7,44.9,3.3,6.9,6.6,13.8,10.5,20.3,2.3,3.9,5,9.1,8.9,12.2-3,3.5-5.7,7.3-8.4,11.1-1.7,2.4-3.4,4.8-5.2,7.1h-.2ZM597,849.9c-4.5,3.3-8.4,7.9-11.8,12.2-.7,1-1.4,1.9-2.1,2.9,1.3-11.7,3.3-23.3,5.9-34.8,1.8-8.1,3.8-16.3,6.6-24.2,2.5-7.2,6.5-12.8,12.1-17.9.9-.8,1.8-1.6,2.8-2.3-8.7,20-13.4,42-13.5,63.7v.4h0ZM591,867.2c4.1-4.9,9.1-8.8,13.4-13.4l.2-.2c2.8.2,5.5.4,8.3.6,3.8.3,7.7.3,11.5,1,3,.6,4,2.6,4.5,5.5.2.9.3,2,.4,3.2-.2-.3-.3-.6-.5-.9-2.2-3.2-6.5-4.3-10.2-5.1-4-.8-8.8-1.4-12.8,0-.6.2-.7,1-.2,1.3,2.4,1.5,5.6,2.7,8.3,3.6,2.7.9,6.2,1.5,8.6,3,2.2,1.4,1.7,4.6,1,6.7-.4,1.2-1,2.2-1.7,3.2,0-.4,0-.7-.2-1-.5-2.6-1.6-5.3-3.5-7.3-1.8-1.8-4.3-2.8-6.8-3.4-3.1-.8-6.2-1.5-9.4-1.3-.5,0-1,.8-.5,1.2,3.6,3,8.5,3.5,12.2,6.3,1.9,1.4,2.8,3.7,3.1,6,0,1,0,2,0,2.9-.5.2-.9.4-1.4.6-1.3-2.6-3.4-5.1-4.8-6.5-3.7-3.5-8.2-4.9-13.2-5.4-1.2,0-1.4,1.7-.3,2,3.9,1.1,7.2,4,9.7,7.1,1.1,1.4,2,3,2.7,4.7-1.7-1.5-3.6-2.8-5.5-4-2.7-1.7-5.7-3.6-8.9-4-.6,0-.7.7-.4,1,2,2.4,4.9,4.2,7.3,6.3,1.6,1.4,3.1,2.8,4.6,4.3,0,.3-.2.6-.3.9-.3.2-.5.5-.8.7-3.4-3.7-8.6-6.2-13.1-7.8-1-.4-1.6,1.2-.7,1.7,2.2,1.3,4.3,2.9,6.3,4.5,1.7,1.4,3.1,3,4.6,4.4-.7.7-1.3,1.4-2,2.2-3-2.5-6.5-4.6-9.7-6.7-2-1.2-5.2-4-8.1-4.9,2.3-4.6,5-9,8.3-13h0ZM685.4,983.3c-.3.4-.6.8-.8,1.2-2.7-2.8-6.1-4.8-9.9-5.6-4.2-.8-9.5-.9-13,1.8-1.1.9-.8,2.6.7,2.7,3.5.2,6.8,0,10.1,1.5,2.1.9,3.9,2,5.5,3.4-.7.2-1.3.4-2,.7-2.2-1.2-4.8-2-7.1-2.6-2.7-.7-6.5-2-9.2-.7-.4.2-.5.8,0,1,2.1,1.7,5.5,1.9,8,2.9,1,.4,1.9.8,2.8,1.2-.9.3-1.7.5-2.6.8-.9-.5-1.9-.8-2.9-1.2-2.2-.7-5.2-1.5-7.3-.2-.5.3-.5,1,0,1.4,1.4,1,3.2,1.2,4.8,1.7-1.5.4-3,.9-4.5,1.3-1.9-.6-3.9-.8-5.8-.4-.9.2-.9,1.6,0,1.7.2,0,.4,0,.6,0-2.1.6-4.2,1.1-6.3,1.7.3-.4.6-.8.9-1.2,4.4-5.8,9-11.4,12-18,3-.4,5.5-2.2,8.1-3.8,2.6-1.5,5.6-1.9,8.5-1.5s5.6,1.8,7.6,3.8,3.3,4.5,1.8,6.2h.1ZM772.5,933.3c.7,4,1.4,7.9,2.1,11.9-3.1.3-6.1,1-9.2,1.3-3.7.3-7.4.4-11.1.2-7.1-.4-14.2-1.8-20.9-4.2-12.7-4.6-23.9-13.1-31.9-23.9-2.2-3-4.3-6.1-6.1-9.3-.9-1.6-1.7-3.1-2.5-4.7-.9-1.7-2.3-3.7-2.9-5.5-.3-.8-1.5-.5-1.3.4.5,1.6.5,3.3,1,4.9.6,1.7,1.2,3.4,1.9,5.1,1.4,3.2,3,6.3,4.9,9.2,3.9,5.9,8.6,11.4,14,16,11.4,9.8,25.6,16.1,40.5,17.9,3,.4,6,.5,9,.5-1.8.9-3.6,1.9-5.3,2.8-1.4.7-2.8,1.4-4.2,2.1-2.3-.4-4.8-.4-7-.8-3-.5-5.9-1.1-8.8-1.9-6-1.7-11.6-4.2-16.8-7.5-.7-.4-1.6.6-.9,1.2,4.9,4.1,10.4,7.4,16.4,9.7,3,1.2,6.2,2.2,9.4,2.9h.4c-4.2,2.1-8.4,4.1-12.6,6.1-8.6,4-17.4,7.8-26.2,11.3-1.9-.9-3.9-1.6-5.7-2.3-1.1-.4-1.6,1.3-.5,1.8,1.2.5,2.3,1.1,3.3,1.7-2.2.9-4.5,1.7-6.7,2.6.3-4.3-1.6-8.7-4.8-11.9-4.9-4.9-12.3-6.9-19.1-5.9-3.3.5-6.3,1.8-9.1,3.7-1,.6-2.3,1.9-3.5,1.8-1.2,0-2.2-1.5-2.9-2.3-4.9-6.1-8.5-13.7-11.9-20.6-7.8-15.8-15.3-31.6-22.9-47.5-.9-1.9-1.9-3.9-2.8-5.8-.5-1-1-2.1-1.5-3.1s-.5-1.4-.8-2.1c.7-.2,1.4-.4,2-.7,1.9-.7,3.7-1.6,5.4-2.5,6.2-3.5,13.6-9.4,14.4-17,.7-6.8-.3-16.3-7.2-19.7-4.2-2-9.4-1.8-14-2.1-3.7-.3-7.3-.5-11-.8.7-24.6,7.4-48.3,19.5-69.6,9.1,4.9,18.2,9.7,27.3,14.6,1.8,1,4.3.5,5.4-1.4,2.3-4.2,6.1-6.8,10.8-7.6,2-.4,3.5-3,2.8-4.9-2.9-7.8-6.4-15.5-10.4-22.8,18.1-3,36.4-5.3,54.7-6.6,1.8,0,4.4-.7,6,0,1.5.8,2.6,3.3,3.4,4.7,2.6,4.2,5.2,8.4,7.9,12.5,2.3,3.6,5,7.2,9,9,3.5,1.5,7.8,1.7,11.1-.5,2-1.3,3.3-3.2,4-5.4.3-1.1.5-2.2.7-3.3,0-.6.7-1.8.6-2.4h0c0,0,.2.2.4.3,1.1.8,2.2,1.6,3.3,2.4,1.2.8,2.3,1.6,3.5,2.4-2.2,12.9-3.2,26-3.5,39.1-4.1-3.5-9.1-6.1-13.9-7.8-7.8-2.7-16.1-2.9-23.9-.5-1.4.4-.8,2.3.6,2.1,7.3-1,15,0,21.8,2.9,3.3,1.4,6.3,3.2,9.2,5.4,2.4,1.8,4.2,4,6.2,6.1v4.7c-4-4.1-8.6-7.7-13.6-10.5-8-4.5-17.4-6.2-26.5-5.1-18.2,2.1-33.3,14.9-38.3,32.6-2.8,9.7-1.5,19.5.8,29.1,2.3,9.5,5.1,18.8,8.9,27.8,7.3,17,19.1,32.6,36,41,12.5,6.1,33.2,9.4,43.8-.9l-.2-.5ZM646.8,762.4c1.7,1.9,2.9,3.7,3.6,6,.3,1,.8,2,1.1,3,.2.6.2,1.3.4,1.9h0c-.6-.7-1.3-1.5-1.8-2.2-1.4-2-2.7-4-4.4-5.8-.9-.9-2.7,0-2.3,1.1.9,2.2,2.4,4.1,3.7,6.1.2.4.5.7.7,1.2-.9-.4-1.7-.8-2.6-1.2-1.1-1.2-2.3-2.4-3.5-3.6-.5-.5-1.3,0-1,.6.3.4.5.8.8,1.3-1-.5-1.9-.9-2.9-1.4.5-1,1-2,1.6-2.9,1.1-1.8,2.4-3.5,3.7-5.2,1.6-2,3.5-4.3,5.7-6.1,3.2,4.7,6,9.6,8.4,14.6-.6.2-1.2.4-1.7.7-.5-1.5-1.3-2.9-2.1-3.9-1.6-2.1-3.6-4-6-5.5-.8-.5-2,.5-1.4,1.2h0ZM741,763.8c.3,0,.6,0,1-.2,2.5-.4,4.9-1.3,7.3-1.9-.3,2.4-.6,5.2-3,5.2s-3.8-1.4-5.2-3.2h0ZM755.1,871.8c-6.5-15.9-15.5-30.8-27.7-43.1-3.3-3.3-6.7-6.4-10.4-9.1-1.9-1.4-3.8-2.9-5.9-4,.8-.4,1.7-.8,2.6-1.1,12.8,6.4,24,16.6,32.1,28.4.7,1,2,0,1.5-.9-5.3-12.5-14.3-22.6-25.7-29.5.8,0,1.5-.2,2.3-.2,1.7,1.4,3.8,2.5,5.5,3.8,2.6,2,4.9,4.1,7.3,6.3,4.6,4.1,8.7,8.7,13.1,13,.3.3,1,0,.9-.5-2.1-6.1-6-11.5-10.3-16.2-1.4-1.6-3.1-3.1-4.7-4.5,2.2,1.6,4.4,3.2,6.5,5,2.3,2,4.6,4.1,6.7,6.3,1.6,1.7,3.7,5.1,6.2,5.4.4,0,.8-.3.7-.7.2-2.4-2.7-5.1-4.2-6.9-1.8-2.1-3.7-4-5.7-5.9,5.7,3.4,10.5,8.1,15.7,12.4,0,3.4.3,6.8.5,10.2-1-1.3-2.2-2.4-3.5-2.9-.3,0-.7.2-.7.5.3,3.1,3,6.1,4.4,8.8,0,0,0,.3.2.4,0,.6,0,1.1,0,1.7,0,2,.3,4,.4,6-1.6-2.7-3.8-5.5-6.3-6.2-.2,0-.4,0-.4.4.3,1.8,1.7,3.6,2.6,5.2,1.1,1.9,2.1,3.8,2.9,5.9.8,1.9,1.4,3.9,1.9,5.9,0,.6.2,1.2.3,1.8.2,2.2.4,4.4.6,6.7-.4-1.1-.9-2.2-1.3-3.2-1.2-2.8-2.5-5.5-3.9-8.2-.7-1.4-1.5-2.6-2.3-3.9-.9-1.5-2.1-2.6-3-4,0-.2-.4,0-.4.2,1,2.8,1.6,5.8,2.7,8.6,1.1,2.8,2.1,5.7,3.1,8.6,1.9,5.6,3.7,11.3,5.2,17,1.2,4.4,2.2,8.8,3.1,13.2.8,6.4,1.8,12.9,2.8,19.3-.6,1.2-1.4,2.3-2.4,3.3-.8-8.6-2.6-17.3-4.5-25.7-2.1-9.3-4.9-18.4-8.5-27.3v-.3ZM760.2,929.2c-1.4.4-2.8.8-4.1.9-6.8,1-14.2-.6-20.5-3.3-14.7-6.2-25.3-18.9-32.3-32.9-3.7-7.5-6.4-15.4-8.7-23.4-2.3-8.3-4.9-16.9-4.1-25.6.8-9.7,5.8-18.6,13.2-24.7,1.9,2.1,4.4,3.5,6.7,5.3,3,2.4,6,4.8,8.8,7.5,5.6,5.3,10.6,11.3,15,17.7,9.7,14.4,16.1,30.6,20.3,47.4,2.5,10.1,3.8,20.2,5.7,30.4,0,.2,0,.4.2.6h-.2ZM851.8,505.1c-1,2.6-2.3,4.9-3.7,7.2h0c-2.6-.3-5.2.7-7.7,1.4-2.8.7-5.7,1.4-8.5,2-2.8.5-5.5.9-8.3,1h-4.3c1.6-3.1,3.2-6.2,4.7-9.4,1-2,1.9-4.1,2.8-6.2.2-.5.4-.9.6-1.4.9.3,1.9.5,3,.5,8,.2,16.1-1,24-1.9-.9,2.2-1.6,4.5-2.5,6.8ZM737.5,462.2c2.6,1.3,5.1,2.2,7.9,2.5-.2.6-.3,1.2-.5,1.9-.7,0-1.4.2-2.1.3-1.5,0-3,.4-4.5.2-.7,0-.9,1.1-.2,1.3,1.6.4,3.4,1.1,5.2,1.4-1.6.2-3.2.6-4.8,1.1-1.5,0-3.2.3-4.6.4-.9,0-1.9.1-2.9.2.8-3,1.3-6.1,1.9-9.1.8-3.5,1.4-6.9,1.9-10.4,2,.3,4.2.3,6.4.2,4.1-.3,7.5-.3,10.8,1.4-.3.2-.6.5-.9.7-.4-.2-.9-.3-1.5-.2-2.3.4-4.5,1-6.8,1.1-1.9,0-4-.2-5.8.2-.6.1-.8,1-.4,1.4,2.4,2.2,6.9,2.8,10.6,2.3-.3.7-.6,1.5-.9,2.2-2.8.2-5.7.2-8.4-.4-.8-.2-1.4,1-.6,1.4h.2ZM748.8,471.1c.7-2.7,1.5-5.6,1.9-8.4,7.9,9,18.6,14.5,29.5,19.4,7.1,3.2,14.2,6.6,21.5,9.3,1.1.4,2.3.8,3.5.9h0c-1.8,2.2-3.7,4.3-5.6,6.4-1.9,2-4,4-6,5.9-.6.6-1.3,1.2-2,1.9h0c-8.6-1.9-17.4-4.3-25.2-8.4-3.9-2-7.6-4.4-11.1-7.2-3.4-2.8-6.3-6-9.6-8.9,1.6-3.3,2.3-7.4,3.3-10.9h-.2ZM802.9,502.2l.2-.2c1.7,2.2,3.7,4.2,5.4,6.3.2.2.7,0,.7-.3-.4-3-1.5-6.3-3.5-8.8.3-.3.6-.6.8-1,.8,1.1,1.6,2.2,2.3,3.3,1.1,1.7,2,3.6,3.4,5.1.3.3.9,0,.9-.4,0-3.5-2.2-7.6-4.5-10.6h0c.2-.3.5-.6.7-.9.7.8,1.5,1.6,2.1,2.4,1.3,1.7,2.9,3.5,3.9,5.4.2.5.9.1.8-.3-.5-2.4-.9-4.4-2.1-6.6-.7-1.2-1.6-2.6-2.6-3.8,0,0,0-.2.2-.3,0,0,.2,0,.2-.1,1.4,1,2.7,1.9,3.8,3.3,1,1.3,1.2,3.1,2.5,4.1.4.3.9,0,1.2-.3,1.1-1.6-.2-4.4-.9-6-.7-1.4-1.6-2.7-2.8-3.7.2-.2.4-.4.5-.5,2.8,1.8,4.9,3.2,6.4,6.6.4.9.9,1.8,1.4,2.5-.4.5-.8,1.1-1.1,1.7-1.2,1.9-2.3,3.9-3.4,5.8-2.1,3.8-4.1,7.7-6.1,11.7,0,0-.2,0-.3-.2-1.7-1.1-3.2-2.5-4.6-3.9-1.4-1.3-2.6-2.8-3.8-4.3-1.1-1.4-1.9-3-3-4.4.4-.5.9-.9,1.3-1.4v-.2ZM857.3,492c-1.7-1.9-3.2-3.8-4.9-5.7,2.2,1,4.5,2.1,6.7,3.2-.7.8-1.4,1.6-1.9,2.6h.1ZM820.9,444.1c.4.6,1,.9,1.6.9,0,.5.4.8,1.1.8,4.1,0,6.8,3.7,9.7,6.3,1.5,1.3,2.9,2.7,4.4,4,.7.7,1.5,1.3,2.2,2,.4.3.7.6,1.1,1-.7.6-1,1.6-.8,2.5-.4.5,0,1.4.6,1.6,5.3,2,7.5,6.2,10.1,10.9,1.7,3,3.4,6.1,5.1,9.2-2.5-1.1-4.9-2.2-7.4-3.4-1.1-.5-2.1,0-2.7.7-.4.2-.6.6-.5,1.1h0c0,.5,0,.9.3,1.2,1.3,3.9,4,7.5,6.8,10.7-7,.6-14,1.1-21,1.5-2,.1-3.2,0-4.1-2-.6-1.4-1.2-2.8-2.1-4-1.8-2.5-4.7-5.1-7.8-5.6-.6-.1-1.2,0-1.7.3-2.4.8-4,3.3-6.5,3.9-3.3.9-6.9-1.4-9.8-2.8-6.3-2.9-12.7-5.6-19-8.5-10-4.5-20.3-9.4-27.7-17.7,1.3-1,2.5-1.9,3.6-3,.6-.6.7-1.4.4-2v-.6c-1.1-4-5.3-5.7-9.1-6.3-4.9-.8-10.4,1-15.1-1-4.4-1.9-6.8-7.5-8.7-11.6-2-4.3-3.5-8.8-4.5-13.5,2.2-.4,4.4-.5,6.7-.2,3,.3,5.6,1.5,8.4,2.3,1.3.4,2.2-.5,2.4-1.5.6-.2.9-.9.6-1.5-1.2-2.4-3.8-4.1-5.8-5.8-.9-.7-1.8-1.5-2.8-2.2.5-.1.9-.2,1.3-.3,2.8-.5,5.7-.8,8.6-.9,2.6,0,5.2,0,7.8.2,2,.2,4.2.9,6.2,1,.3.3.6.6,1,.8,2.2,2.7,7,3.6,10,3.7.2,0,.5,0,.6-.2.6-.2,1.2-.8,1.1-1.4v-.3h0v-.3h0c0,.2,0,.1,0-.3,3.7,2,7.9,3.4,11.7,5,4.3,1.7,8.6,3.4,12.9,5.1,0,1.3.8,2.3,2.1,3,.4.2.9.3,1.4.3h.6c.6-.2,2.8,1,3.3,1.2,1.3.5,2.6,1.1,3.9,1.7,2.4,1.2,4.9,2.4,7.2,3.8,4.4,2.6,9.6,5.7,12.2,10.3h0ZM730.7,450.7c-.9,3.6-1.8,7.2-2.5,10.9-.6,3.1-1.5,6.3-1.8,9.4-3.2-3.6-6.4-7.2-9.2-11.2-1.5-2.1-2.9-4.4-4.4-6.6-1-1.5-1.6-3.2-2.4-4.8.2-.2.3-.4.4-.6.9-2.3,1.2-4.9,1.7-7.3.5-2.5,1.1-4.9,1.7-7.4.5-2.1,1.3-4.4,1.9-6.6.8,2.9,1.8,5.8,3,8.6,2,4.7,4.3,9.6,8,13.2,1.1,1.1,2.3,1.9,3.5,2.5h0ZM724.9,415.9c0-.6.3-1.2.5-1.8.8.8,1.6,1.4,2.5,2.1-1-.1-2-.2-3-.3h0ZM809.1,429.8c-2.7-1.4-5.4-2.7-8.2-3.8-1.8-.7-5.2-2.4-7.1-1.1,0,0,0,0-.2-.1-.5-.3-1-.8-1.2-1.4.3-.7,0-1.8-.9-2.1-4.3-1.7-8.6-3.5-12.9-5.2-4.2-1.6-8.6-3.7-13-4.7h-.9c-.8,0-1.8.7-2.1,1.4,0,.2,0,.4-.2.6-1.2-.4-2.5-.8-3.7-1.2-1.4-.5-2.7-1.2-3.9-1.9h0c-1.8-1.8-4.9-2.1-7.3-2.6-2.9-.5-5.7-.8-8.7-.8s-5.5.3-8.2.9c-1.8.4-4.3.8-5.8,2-.9,0-1.6.9-1.3,1.8-1.1,1.3-2,2.8-2.4,4.4-1.7.1-3.3.4-4.9.8-.5.1-.9.5-1.2.9,0,.1-.3.2-.4.4-1.3,1.9-2,4.3-2.7,6.5-.9,2.5-1.6,5.1-2.3,7.7-1.3,4.7-3.1,10-3.2,14.9v.2c-2.2,4.7,3.2,11,5.8,14.4,3.8,4.9,7.9,9.9,12.6,13.9.5.4,1,.6,1.5.6,2.4,1.3,5.6,1,8.3.8,2.5-.2,5.6-.2,7.6-1.9h.8c-.5,2.3-1,4.7-.9,6.9v.4c-.3.5-.3,1.2,0,1.8,4.8,8,13.4,14.2,21.2,18.8,8.4,5,17.5,8.3,27.3,8.8.6,0,1,0,1.4-.4,1.5-.5,3-1.8,4.1-2.7,1-.8,2-1.7,3-2.7,1.1,4,4.3,8.2,7,10.9,2.4,2.5,6.8,6,10.8,5.9.9,0,1.9,0,2.9,0v.5c1.5,27.8,1.5,55.6-3.1,83.1-4.6,27.4-13.7,53.3-24.3,78.9-9.7,23.4-19.9,46.8-25.5,71.6-.8-.5-1.7-.9-2.5-1.3-1.2-.5-2.4-.9-3.6-1.2-1.5-.8-3.1-.9-4.6-.7h-2c-3.7.2-7.3,1.3-10.8,2.5-1.7.6-3.4,1.4-5.1,1.8-.2,0-.4,0-.6,0-2.5-4-5.1-8.1-7.6-12.1s-5.5-6.7-10.5-6.9-10.3.6-15.3,1.1c-5.4.5-10.7,1-16,1.7-10.8,1.3-21.5,2.8-32.3,4.6-.6-.3-1.3-.5-2.1-.4-6.1,1-11,7.4-14.5,12-1.9,2.5-3.6,5.1-5.1,7.8-.8,1.5-1.7,3.1-2.5,4.8-2.2-1.2-4.5-2.4-6.8-3.7-2-1.1-4.4-.5-5.6,1.5h0c-5.3,3.8-10.4,7.9-15.4,12.1-6.2,5.1-11.1,11.1-14.2,18.5-3.3,7.9-5.3,16.3-7.2,24.6-2.1,8.9-3.7,17.8-5,26.8-1.5,10.1-2.5,20.3-3,30.5,0,1.8,1.4,3.2,3,3.6.3.9.9,1.8,1.7,2.4,2.8,2.1,5.8,4,8.8,5.8,2.5,1.5,5,3.2,7.6,4.5-3.3,4.1-6.5,8.3-9.4,12.6-1.6,2.4-2.9,4.9-3.4,7.7-.6,3.6.5,7,1.5,10.4,1.6,5.4,3.3,10.8,5.3,16.2,8.2,22.4,20.8,42.8,41.1,56.2.4.2.7.5,1.1.7-18,4-36.2,6.9-54.5,8.5-10.1.8-20.1,1.2-30.2,1.3-4.9,0-9.8,0-14.7,0-3.8,0-7.7-.3-11.5-.3-1.5-14-3.8-27.9-5.8-41.7-1.7-11.8-3.6-23.6-8.8-34.4-5.3-10.9-14.2-19-25.5-23.3-10.6-4.1-22.5-4.5-33.6-3.2-13.9,1.6-27.2,5.9-40.8,8.8-11.4,2.4-23.2,3.6-34.6.5-9.4-2.5-18.3-7.8-22.9-16.6-2.8-5.3-3.7-11.6-4.5-17.5-.8-5.7-1.5-11.5-2.4-17.2-2.1-12.6-5.6-25.2-13.9-35.2-2.1-2.6-4.9-4.5-7-6.9-2-2.3-1.2-6.1-1-8.9.6-7.7,2.8-15.3,2.8-23.1s-1.9-2.9-3.3-2.3c-.7-.5-1.5-.8-2.6-.7-2.5,0-3.6-1.7-4.6-4.4-1.3-3.5-1.7-7.1-2-10.8-.7-10.1-2.7-20.6-8.5-29.1-5.8-8.6-14.6-13.8-23.5-18.8-7.8-4.4-16.2-9.2-20.8-17.3-4.9-8.7-.7-16.9,4.6-24.3,6-8.3,12.2-16.4,17.3-25.4,10.3-18.1,17.4-38.3,20.9-58.8,1.7-10.2,2.7-20.4,2.8-30.7,0-11.5-1.3-22.8-2.9-34.2s-3.3-22.8-3.5-34.4c-.2-10.5.5-21,2.3-31.4,7.2-41.8,28.8-79.6,57.6-110.4,14.1-15.1,29.8-28.6,46.5-40.8,17.3-12.6,35.7-25,55.7-33.1,3.1-1.3,6.2-2.4,9.4-3.5,3,17.7,8.1,35,15.5,51.3,2.9,6.4,6.2,12.7,9.7,18.7,3.7,6.3,7.5,12.7,12.3,18.3.4.4.8.7,1.2.9.7,1,1.8,1.7,3.1,1.8,3.9.1,8-1.2,11.7-2.2,3.6-1,7.2-2.1,10.8-3.4.6-.2,1.3-.5,1.9-.7-1.3,4.7-2,9.6-2.5,14.2-.4,3.4-.7,6.9-.7,10.3v1.4c-9.1-8.8-20.3-15.8-31.6-21.4-1.6-.8-4.4.1-4.1,2.4,0,.5.1,1,.2,1.5-1-.6-2-1.1-2.9-1.7-2.4-1.7-4.5-3.8-6.6-5.7-4.5-4-8.8-8.4-13.6-12-.7-.5-1.4-.6-2-.3-2.3-1.5-5.6-2.2-7.7-2.7-4.2-1.1-8.6-1.8-13-2-8.5-.4-18.1.3-26,3.6-.7.3-1.2.7-1.5,1.2-3,.4-5.4,4.2-7.1,6.3-1.7,2.2-3.1,4.5-4.5,6.9h-.8c-.9-.3-2-.1-2.7.6-3.6,1.6-6.7,4.8-9.7,7.4-3.4,2.9-6.6,6.1-9.7,9.3-5.6,5.7-10.8,11.7-15.7,17.9-.5.3-1,.8-1.2,1.5-.2.3-.4.5-.6.8-.7.9-.7,1.8-.3,2.7-1.1,4.9-1.5,10-1.8,15.1-.4,6.4-.5,12.9-.1,19.3.7,12.7,3,25.3,6.4,37.5.1.5.4,1,.8,1.3,0,.5.2,1,.7,1.4,3.1,2.5,6.7,4,10.3,5.6,2.5,1,5.2,2.2,7.9,3.1-.5.8-1,1.6-1.5,2.4-.5.9-.5,1.8-.2,2.7.6,4.2,2.2,8.2,3.8,12.1,1.6,3.9,3.3,7.7,5.2,11.5,3.8,7.6,8.3,14.8,13.3,21.6,10.1,13.8,22.3,25.9,36.2,35.9.1,0,.3.2.4.3-2.3,0-4.7.9-6.7,1.5-3.3,1-6.8,2.2-9.8,4.1,0,0-.1,0-.2,0-2.9,1.7-5.2,5.4-7.1,8.1-2.2,3.2-4.3,6.5-6.1,9.9-3.6,6.7-6.4,13.8-8.4,21.2-.3,1,0,1.8.4,2.5,0,.2.1.4.3.7,1,2.9,2.9,5.7,4.4,8.3.5.8.9,1.7,1.4,2.6-2.2,1.4-4.3,3-6.4,4.6-2.5,1.9-6.5,4.4-7.8,7.3-.3.7-.3,1.6,0,2.3-1.3,4.3-.9,9.5-.8,13.9.1,5.7.7,11.4,1.3,17.1,1.3,11.2,3.4,22.4,7.1,33.1,0,.2.1.3.2.5,0,1.7,1.5,3.1,3.3,3.3,3.4.4,6.7,1.2,10,2-.3.4-.6.8-.8,1.2-.6.8-.6,1.6-.3,2.3h0c.5,5.2,3.6,10.1,6.3,14.2,2.9,4.4,6.2,8.4,10,11.9,3.8,3.6,8,6.7,12.4,9.4,2.2,1.3,4.4,2.4,6.8,3.4,2.5,1.1,5.1,2.4,7.9,1.8.9-.2,1.4-.8,1.6-1.5,1.4-1,2.7-2.2,3.9-3.5.8,1.5,1.6,2.9,2.4,4.4,1.2,2.2,2.3,4.2,4.3,5.8,1.5,1.1,3,.3,3.8-1,12.4,0,24.9-1.7,36.8-5.4,4.7-1.5,9.4-3.4,13.5-6.3,2.7-1.9,5.9-4.7,7.6-7.9.3,0,.5-.3.8-.6,2.2-2.9,4.2-5.9,6.2-8.9,1.5-2.2,3.3-4.6,4-7.2,5-7,10-14.1,13.7-21.9,1.7-3.4,2.3-7.2.2-10.6-1.2-1.9-3.4-4.2-5.7-5.3,1.4-.7,3.1-1.1,4.1-1.7,2.3-1.3,3.7-3.5,4.1-6.1.5-3,0-6.1,0-9.1l-.6-10.9c-.2-3.5-.4-7-.5-10.4-.2-3.1,0-6.5-1-9.4-1.2-3.7-4.7-6.2-8.2-5.9.8-1.1,2.4-2.3,2.9-3,1.3-1.7,2-3.8,2.2-5.9.4-3.5-.8-6.9-2.4-10,3.9,0,7.8,0,11.5-.6,1.5,1.3,3.4,1,4.8-.2,1.8-1.4,3.6-2.8,5.3-4.3.3,1,.7,1.9,1.2,2.7-3.6,1.7-7,4.4-8.6,8.1-2.3,5.3.5,11.6,2.5,16.7,2.1,5.5,4.6,10.9,7.5,16,1.5,2.7,3.3,5.2,5,7.8,1.5,2.1,2.8,4.1,4.9,5.3,0,.2.2.4.4.6,2.6,2.6,7.2,2.5,10.7,2.9,2.3.3,5.8,1.1,8.4.6,0,1.4,0,2.8-.2,4.2,0,.7.2,1.4.6,2h0c.9,4,4.4,7.3,7.4,9.9,3.1,2.7,7,5.5,11.1,6.3h.7c7,3.1,15.9,3,23.4,2.2,7.9-.8,15.8-2.9,23-6.4.9-.4,1.3-1.2,1.4-2,2.1-2.6,3.5-6,5-8.8,1.7-3.1,3.5-6.2,5-9.4.6.5,1.2.9,1.7,1.4,4.3,3.3,9,8,14.3,9.6.3,0,.6,0,.9,0,2.6,1.4,6.6-.9,8.9-2,2.8-1.3,5.5-2.7,8.1-4.3,5.4-3.4,10.5-7.4,15.2-11.8,4.6-4.4,8.8-9.3,12.5-14.6,1.7-2.5,3.4-5.1,4.9-7.8,1.3-2.5,3-5.5,3.5-8.3,0-.3,0-.5,0-.8h0c0-.6,0-1-.3-1.4-1-4-4.5-7.8-6.7-11.1-1.6-2.4-3.3-4.7-5-6.9,2.6-.6,5.4-2.2,7.5-3.3,1.4-.7,3.1-1.4,4.7-2.3.3,0,.6,0,.8-.3,3.6-2.3,6.1-6.5,8.3-10.1,2.3-3.7,4.2-7.6,5.8-11.6s2.9-8.1,3.7-12.4c.8-4.2,1.6-8.7.7-12.9h0c0-2.6-1.8-4.8-3.2-6.8-1.6-2.3-3.4-4.5-5.1-6.6-2.3-2.9-4.7-6.1-7.5-8.7,0-.4.2-.8,0-1.3-1.1-10-4.7-20.1-9.1-29.1-.3-.5-.6-.8-1-1-.2-.7-.8-1.4-1.7-1.8-6.8-2.7-13.6-5.2-20.4-7.7-6.4-2.3-12.9-5.2-19.5-6.7-5.9-1.4-11.9-1-16.7,3.2-1.7,1.5-3.1,3.3-4.6,4.9-.9-.7-2-1.1-3-1.6-1.9-.9-4-1.8-6-2.4-.6-.2-1.1-.1-1.5,0h0c-10.6,1.1-21.2,4.1-30.8,8.4-3.6,1.6-9.5,3.4-10.9,7.6-.7,2-.2,4.1.3,6.1.2.7.4,1.4.6,2.1-1.5.8-2.7,2.1-4.1,3-.9.5-2,1-3,1.6-.2-.3-.4-.6-.7-.9-1.5-1.5-3.6-1.4-5.5-.8-2,.6-4.1,1.8-5.9,3.2v-1.7c-.3-8.4-.2-17.2-2-25.4,0-.3,0-.5-.3-.8-1.2-1.7-3.5-2.7-5.4-3.6,0,0-.3-.1-.4-.2-1.3-1-2.5-1.9-3.8-2.9-.6-.4-1.2-.9-1.8-1.4.5-1.5.8-3.1.9-4.6.3-.3.6-.6.7-1,0,0,.3-.2.4-.4,1.1-1.9,0-4-1-5.8-1.2-2.4-2.4-4.7-3.9-6.9-2.5-3.7-5.1-7.4-8.2-10.6,6.9-2.2,13.5-4.8,20.1-7.8,3.1-1.4,6.5-2.7,9.6-4.5,2.5.8,5.2.3,7.7,0,2.7-.3,5.4-.7,8.1-1.2,4-.8,8.1-1.8,12-3.3h1.6c4.7-.3,8.3-4,11.4-7.2,7-7.2,13.6-14.8,19.8-22.7,5.8-7.5,12-15.7,13.8-25.3.8-4,.7-8,.2-11.9,2.3-2.2,3.9-5.5,4.2-8.6.5-.4.9-1,1.2-1.7,5-15.6,7.4-32.1,7.5-48.4,0-7.4,0-15.5-4.2-21.8-2-2.9-4.7-5.4-6.3-8.6,4.1,2.2,8.2,4.4,12.1,7.1,2.5,1.7,4.8,3.6,7.3,5.3,1.6,1,3,2.4,4.6,3.7.8,3.5,1.7,7,2.8,10.4.2.6.5,1,.9,1.3.3.4.7.7,1.2.9,2.2.6,4.3.7,6.5.8,1.3.1,2.6.3,3.8.3-1.1,1-2.2,2-3.4,3-.8.7-1,1.6-.8,2.3-.5,4.2,2,9.2,3.7,13,1.9,4.3,4.1,8.4,6.8,12.3,2.5,3.7,5.3,7.3,8.3,10.7,3.1,3.5,6.3,7.4,10.2,10,.9.6,1.8.5,2.5,0,3.8-.2,8-1.7,11.6-2.7h.2c-.7,5.6-.4,11.8,1.6,17.1,0,.4.3.7.6.9,0,.9.5,1.8,1.2,2.3,4.7,3.3,9.7,6.1,14.8,8.6.2,2.8,1.1,5.6,1.9,8.3.8,2.9,1.5,5.9,2.3,8.8.7,2.9,1.4,5.9,2,8.9.3,1.4.5,2.9.8,4.3l-.5-.2ZM835.5,397c-2.1,1-4.1,2-6.2,3-1.5.7-3.2,1.4-4.7,2.3-2.1-1-4.6-1.5-6.7-2.2-3.3-1.2-6.5-2.3-9.7-3.7-4.4-2-8.7-4.2-12.9-6.7,6.3-1.8,12.8-4.6,17.1-9,1.1,1.6,2.7,3,4.6,4.2,7.1,4.7,15.1,7.8,23.3,9.7-1.7.8-3.3,1.7-4.9,2.5h.1ZM850.6,389.7c-.3.3-.7.5-1.1.8-.2-3.6-.4-7.1-.7-10.7.2.3.3.6.5.8,1.2,2.4,2.5,4.7,3.8,7-.9.6-1.7,1.4-2.5,2h0ZM871.1,366.4c-.7,1.5-1.6,3-2.4,4.5-3,5.5-6.4,11.4-11.4,15.2-.2-.1-.5-.2-.7-.2-1.4-2.4-2.8-4.7-4.2-7-1.5-2.4-2.8-6.4-5.4-7.8-.5-.3-1.1-.1-1.4.2-.5.3-.9.8-.9,1.6,0,5.8,0,11.6,0,17.5-8.5-1.8-16.7-4.9-24.1-9.4-1.7-1.1-3.5-2.2-4.6-4s-1.2-3.8-1-5.8c.3-3.5,1.3-8.2-.7-11.4-.3-1.7-1.1-3.3-2-4.6-.7-1-1.8-1.4-3-.8-3.9,2-7.6,4.3-11.3,6.6-14.6-14.5-26-31.9-33-51.3,2.2-1.2,4.3-2.5,6.5-3.7,1.5-.8,1.4-2.5.6-3.5,0-3.7-3-6.8-6.2-8.3-1.9-.9-4-1.2-6.1-1.4-2.8-.3-4.4-.6-4.8-3.7-1.4-10.9-2.1-21.9-3.1-32.9,3,.6,6,1.7,8.7,3.2,1.4.8,2.7.2,3.4-.8,2.4.6,4.3-2.3,3.5-5-.7-2.2-2.2-4.1-3.3-6-.9-1.4-1.8-2.9-2.7-4.3,6.5-2.2,13.3-3.2,20.3-3,3.2,0,6.2.5,8.1,3.4,1.4,2.1,3,5,5.2,6.2,0,0,.3.1.4.1.9.7,1.9,1.2,2.4,1.3,2.1.3,3.9-1,4.3-3.1.2-.9-.4-2.7.3-3.3,1-1,3.6,1.5,4.2,2,2.7,2.2,5.4,4.4,8.1,6.6,2.6,2.1,5.2,4.2,7.8,6.2,1.1.9,2.4,1.8,3.2,3,.9,1.3.7,2.6.6,4-.4,4.6,1.8,9.9,7,10.7h.6c.4.3.9.5,1.4.4,2.9-.6,4.8,3.7,6.1,5.8,1.6,2.5,3.1,4.9,4.6,7.5,1.4,2.4,2.8,4.8,4.1,7.2.5.9,3.6,7.8,4.3,7.6-1.1.3-1.4,1.3-1.1,2.1-1.4,2.2,0,4.9,2,6.2,1.8,1.1,3.5,1.4,4.5,3.4s1.5,4.4,2.2,6.6c2.4,7.8,4.8,15.7,7.3,23.4-.9-.3-1.8-.6-2.8-.8-1.2-.3-2.3.8-2.3,1.9s-.2.3-.2.5c-.2,1.5.9,3.2,1.7,4.4.6.9,1.3,1.8,2.1,2.6.7,1,1.5,2.1,2.1,3,0,.2,0,.5.2.7,0,.3.3.4.6.6,1.1,2,1.3,3.6.2,5.9h0Z"/>
  <path class="st0" d="M796,432c-3.3-1.6-17.4-7.3-25.7-6.9-3.1-.5-6.4.6-7.5,3.8-1.9,5,4.3,10.5,7.7,13.6,8.6,7.8,18.7,14.9,29.8,19.1,5.2,1.9,11.7,4.3,17.3,2.8,5.1-1.4,8.2-6.6,5.6-11.3-1.2-2.2-3.3-3.9-5.2-5.5-2.4-2.1-4.8-4.3-7.3-6.3-4.5-3.6-9.4-6.7-14.7-9.3h0ZM817.3,454.4c-.8-.6-1.6-1.1-2.3-1.7-2.3-1.7-4.6-3.2-7-4.6-4.7-2.8-9.6-4.7-14.6-6.9-.5-.2-.7.6-.3.8,4.6,2.6,9,5.9,13.3,8.9,2.1,1.4,4.1,3,6.1,4.5,1.1.8,2.1,1.7,3.2,2.6-1.9-1.1-3.9-2.1-5.7-3.1-2.7-1.5-5.5-3.1-8.2-4.6-5.4-2.9-10.9-5.7-16.4-8.3-.5-.3-1,.5-.5.8,5,3.5,10.2,6.9,15.4,10.1,1.3.8,2.6,1.6,3.9,2.3-4.6-1.9-9.1-4.1-13.4-6.5-5.8-3.3-11.6-7-17-11.1,2.2.7,4.5,1.6,6.8,2.2.8.2,1.2-.8.5-1.3-2.2-1.3-4.6-2.3-7-3.3-1.9-.8-3.9-1.6-5.9-2.2,0,0,0,0-.2-.1,6.5.9,13.2,2.9,18.9,5.9.6.3,1.1-.5.5-.9-3.3-2.3-6.7-4.4-10.5-5.9-2.5-1-5.2-1.7-7.8-2.1,3.3-.5,9.1,1.5,10.8,2,4,1.1,7.9,2.5,11.6,4.2,7.9,3.6,14.7,8.4,21.1,14,1,.9,3.5,2.6,4.9,4.4h-.2Z"/>
  <path class="st0" d="M629.2,572.7c-1.6,2.5-2.9,5-4,7.6-1.8,3.1-3.4,6.4-4.6,9.7-3.3,9.5-.6,19.6,8.1,24.9,8.6,5.2,18.9,4.1,27.7.3,9.8-4.2,18.9-10.8,26.8-17.9,7.5-6.8,15.4-15.1,18-25.2,2.3-8.7,0-19-8-24.1-8-5.2-19-3.6-27.7-1.2-9.7,2.7-18.7,7.7-26.3,14.3-3.9,3.4-7.3,7.2-10.2,11.5h.2ZM629.6,606.8h0s0-.2,0-.3c0,0,0,.2,0,.3ZM695.7,565.5c0,8.7-5.9,16.1-11.7,22.1-6.4,6.6-13.7,12.3-21.5,17-6.3,3.8-13.9,7.7-21.5,7.2,1.3-2.4,2.4-5,3.7-7.4,1.7-3,3.5-5.9,5.5-8.7,4-5.6,8.9-10.7,14.2-15.2,5.3-4.4,11.1-7.9,17.2-10.9,3-1.5,6.1-2.8,9.4-3.9,1.5-.5,3.1-1,4.6-1.5v1.3h0ZM657.8,556.5c.2,0,.4-.2.6-.3.4-.2.9-.4,1.4-.6-6.1,4-11.4,9.3-15.8,14.9-.3.4,0,1,.5.7,7.4-5.4,14-12,22.6-15.7.5-.2,1.1-.5,1.7-.7-2.9,1.4-5.7,3-8.2,5-1.9,1.5-4.7,3.5-5.4,5.8,0,.2,0,.3.3.3,2.5-.4,5.2-2.6,7.4-3.9,2.5-1.5,5.1-2.9,7.7-4.1,2.8-1.3,5.6-2.4,8.5-3.3,1.9-.6,4-1,5.9-1.7.6,0,1.2.2,1.7.3h.3c-.3,0-.7.2-1,.2-2.4.5-4.8,1.2-7.1,2-4.5,1.5-8.8,3.5-12.8,6-3.9,2.4-7.6,5.1-10.9,8.3-3.1,3-6.9,6.7-8.3,10.9-.2.6.6,1.2,1.1.8,3.3-2.5,5.9-6,9.1-8.8,3.4-3,7.1-5.7,11-7.9,3.8-2.2,7.8-4,12-5.3,2.1-.7,4.2-1.3,6.4-1.7,2.2-.5,4.6-.5,6.8-1.3.4.5.7,1,1,1.6-1.8.3-3.6.8-5.2,1.3-3.6,1.1-7.1,2.4-10.5,3.9-6.8,3-13,7.2-18.7,12-5.7,4.7-10.8,10.2-15.1,16.3-2.2,3-4.1,6.1-5.8,9.4-1.5,3-3.2,6.1-3.9,9.4-.8-.3-1.5-.7-2.2-1.1,1.5-3.4,2.7-7,4.3-10.3,1.9-3.9,3.8-7.9,5.6-11.8.2-.5-.4-1.2-.9-.7-3,3.3-5.6,6.9-7.6,10.8-1.3,2.5-2.7,5.1-3.8,7.8.8-2.4,1.4-5,2.1-7.2,1.3-3.8,2.6-7.6,4.3-11.2.3-.7-.6-1.2-1-.6-2.1,3.2-4.1,6.4-5.8,9.8.6-1.6,1.2-3.1,1.9-4.7,2-4.8,4.5-9.5,6.3-14.4,0,0,0-.2-.2,0-4,3.7-6.9,8.3-9.2,13.2-.7,1.4-1.4,2.8-2,4.3,1.8-8.8,7.2-17,13.2-23.5,5.4-5.8,11.5-10.3,18.1-14.3l-.4.2Z"/>
  <path class="st0" d="M536.3,687.3c8.2-16.6,2.7-36.2-6.2-51.3-4.9-8.2-12.2-15.6-22-17.2-6.2-1-13.2,1.2-17.4,6-1.5,1.3-2.9,2.7-4.1,4.2-5.5,6.8-8.2,15.4-9.3,24-2,16.6,4.2,35.7,18.1,45.8,6.5,4.7,14.8,6.5,22.6,4.2,8-2.3,14.7-8.2,18.3-15.6h0ZM498.7,626.5c3.1,1.8,6.1,3.8,8.7,6.2,3,2.7,5.4,5.9,8.2,8.8.4.4,1.1,0,.9-.5-2.1-6-7-11.3-12.4-15.2,1.1.6,2.3,1.2,3.3,1.9,2.3,1.6,4.5,3.3,6.5,5.2,3.9,3.7,7,8,10,12.5.2.3.7,0,.6-.3-1.4-5.5-4.5-10.2-8.4-14.4l-2.4-2.4c4,2.5,7.3,6.2,9.9,10.2,6.2,9.8,11,22,10,33.9v-.3c-.7-5.4-2.6-11.2-5.9-15.6-.3-.5-1.2-.2-1,.4,1.7,5.2,3.3,10.3,3.8,15.8.2,2.6.2,5.2,0,7.7,0,1.5-.5,3.1-.7,4.7-.5.9-1.1,1.8-1.8,2.6.7-4,.9-8,.8-11.9-.2-7.7-1.8-16.5-6.5-22.8-.2-.3-.7,0-.6.3,1.6,7.6,3.5,14.7,3.4,22.6,0,6.2-1.4,11.8-3.2,17.4-.9.6-1.9,1.1-2.9,1.6,2.2-5.4,3.2-11.3,3.6-17,.5-7.4-.5-15-2.9-22.1-2.2-6.5-5.5-12.5-9.7-17.8-3.3-4.1-7.2-8.3-11.9-10.9.3-.2.5-.4.8-.6h-.2ZM515.3,677.4c-.4,6.7-2.4,12.9-4.3,19.2-3.2,0-6.5-.9-9.7-2.8-11.6-7-16.6-22-16.8-34.9,0-8,1.7-16.1,5.8-23,1.4-2.3,2.9-4.4,4.8-6.2,3.4,3.9,7.3,7.5,10.3,11.8,3.5,5,6.2,10.6,7.9,16.5,1.8,6.3,2.5,12.9,2.1,19.5h0Z"/>
  <path class="st0" d="M644.1,218.5c0,.4.7.3.8-.1,0-4.6,0-8.9-.7-13.4-.7-4.1-1.6-9.3-4.2-12.7-.5-.6-1.4-.4-1.5.4-.2,4.1,1.3,8.8,2.2,12.7,1.1,4.4,2.3,8.7,3.4,13.1Z"/>
  <path class="st0" d="M656.4,241.3c.6,3.9,1.3,7.7,1.6,11.6.3,3.5,0,7,.8,10.4,0,.5.8.4,1,0,1.1-3.7.8-7.6.8-11.4s0-7.5-.5-11.2c-1.1-7.7-3.3-15-6.7-22-.2-.5-.9-.1-.8.3,1.5,7.3,2.8,14.8,3.9,22.2h0Z"/>
  <path class="st0" d="M820.7,289.5c-1.2-1.6-2.3-3.4-3.7-4.9-.7-.8-2,.2-1.5,1.1,1.1,1.7,2.5,3.3,3.8,4.9,1.2,1.5,2.3,3.4,4,4.4.3.2.8-.1.7-.5-.6-1.9-2.1-3.5-3.2-5.1h0Z"/>
  <path class="st0" d="M525.2,327.4c1.6,4.4,3.4,8.8,5.5,13,2,4,4.4,8.9,7.6,12.1.8.8,2.1,0,1.8-1-.6-2.1-1.8-4.1-2.7-6.1-1-2.2-2-4.4-2.9-6.7-1.9-4.3-3.8-8.5-5.5-12.8-1.7-4.2-3.1-8.5-4.5-12.8-.8-2.3-1.5-4.6-2.1-6.9-.6-2.1-1-4.3-2.3-6.1-.3-.4-1-.4-1.1.1-.8,4.1.9,9,1.9,13,1.2,4.8,2.7,9.6,4.4,14.3h-.1Z"/>
  <path class="st0" d="M524.2,343.6c1.2,2.8,2.4,6.1,4.4,8.5.9,1.1,2.4-.1,2.2-1.3-.5-2.9-2.1-5.9-3.2-8.7-1.1-2.9-2.3-5.8-3.4-8.7-2.2-5.8-4.2-11.7-6-17.6-.2-.7-1.2-.4-1.1.3.9,6.5,2.2,12.9,4.1,19.1.9,2.8,1.8,5.6,2.9,8.3h0Z"/>
  <path class="st0" d="M516.7,341.1c1.5,4.1,2.7,8.7,5,12.4.8,1.3,2.8.5,2.5-1.1-1-4.2-3.3-8.4-5-12.4-1.8-4.2-3.4-8.7-5.9-12.6-.4-.6-1.3-.2-1.2.5,1,4.5,2.9,8.9,4.6,13.2h0Z"/>
  <path class="st0" d="M515.5,356.3c1,.9,2.7-.2,1.9-1.5-1.3-2.4-3.3-4.4-4.7-6.8-1.5-2.5-2.7-5.3-3.7-8-.3-.7-1.3-.4-1.2.3.9,5.4,3.2,12.5,7.5,16h.2Z"/>
  <path class="st0" d="M509.3,356.4c.7,1.1,2.4.1,1.8-1-1.5-2.6-3.1-5.2-5-7.5-.5-.6-1.2.2-1,.8,1.2,2.7,2.6,5.3,4.2,7.8h0Z"/>
  <path class="st0" d="M502.3,160.8c0,1.3,1.9,1.6,2.3.3.9-2.5,1.2-5.2,1.9-7.7.7-2.7,1.5-5.4,2.4-8.1,1.6-5.2,3.8-10.2,5.5-15.3.2-.5-.6-1-.9-.6-3.5,4.3-5.8,9.3-7.7,14.5-1,2.6-1.7,5.4-2.3,8.1-.5,2.8-1.3,5.9-1.1,8.7h0Z"/>
  <path class="st0" d="M496.5,167.2c1.4-1.3,1.5-3.2,1.9-5,.5-2,1-4.1,1.5-6.1,1-4.2,2-8.5,2.7-12.8.1-.7-.8-.9-1.1-.3-1.7,4-3.1,8.1-4.4,12.3-.6,2-1.1,4-1.7,6.1-.5,1.8-1.3,3.6-.7,5.3.3.7,1.1.9,1.6.4h.2Z"/>
  <path class="st0" d="M489,168.9c1.9-3.3,3-7.5,4-11.1.3-.9-1.1-1.5-1.5-.6-1.8,3.3-3.9,7.1-4.8,10.8-.3,1.4,1.6,2.3,2.3,1h0Z"/>
  <path class="st0" d="M586,447.3c-3.1-2.8-6.2-5.7-9.2-8.5-6-5.6-12.2-11-18.2-16.6-.5-.5-1.4.2-1,.8,5,6.7,10.1,13.1,16,19,3,3,6,5.9,9.1,8.6,2.9,2.5,6.1,5.5,9.8,6.7.9.3,1.6-.8,1.2-1.6-1.8-3.3-5-5.9-7.7-8.4h0Z"/>
  <path class="st0" d="M596.2,447.2c-2.3-1.5-4.6-3-6.8-4.7-4.5-3.4-8.9-7.1-12.6-11.3-.4-.5-1.4.2-1,.7,3.6,4.7,7.3,9.1,11.8,12.9,2.2,1.8,4.6,3.6,7,5.1,2.2,1.4,4.7,3.2,7.3,3.5,1.1.1,1.4-1.3.8-2-1.6-1.8-4.4-2.9-6.5-4.2Z"/>
  <path class="st0" d="M604.8,445.6c-1.6-.9-3.2-1.9-4.8-3-3.1-2-6.1-4.3-9.1-6.5-.3-.2-.8.2-.5.5,2.2,2.9,4.7,5.4,7.6,7.6,2.8,2.1,6.5,5.2,10,5.7,1,.2,1.9-1,1.1-1.8-1.2-1.2-2.8-1.8-4.3-2.6h0Z"/>
  <path class="st0" d="M605.9,441.9c-1.4-.8-2.9-1.4-4.3-2.1-.8-.4-1.4.7-.7,1.2,1.3,1,2.5,2,3.9,2.9,1.2.8,2.4,1.9,3.9,2.3,1.2.4,2-1.2,1.2-2-1-1.1-2.6-1.6-3.9-2.3h-.1Z"/>
  <path class="st0" d="M747,294c.4.8,1.6.4,1.6-.4,0-3.5-1.4-7.1-1.9-10.6-.5-3.8-1-7.7-1.3-11.5,0-.4-.5-.4-.6,0-.4,4.1-.5,8,0,12.1.4,3.4.7,7.3,2.1,10.4h.1Z"/>
  <path class="st0" d="M744.7,297.3c0-2.2-.9-4.3-1.4-6.5-.5-2.5-1.1-5.3-1.1-7.8s-.2-.2-.2,0c-1.3,4.6-2.4,11,1.3,14.9.5.5,1.4.1,1.4-.6Z"/>
  <path class="st0" d="M739.5,299.9c.3.4,1.1.5,1.2-.2.2-1.5-.3-2.9-.6-4.4-.4-1.5-.7-3.3-1.5-4.6-.4-.5-1.1-.3-1.2.3,0,1.5.4,3.1.7,4.5.3,1.5.5,3.1,1.4,4.3h0Z"/>
  <path class="st0" d="M773.2,349.2c2.5,4.2,6,9.4,10.2,12,.8.5,1.7-.5,1.3-1.3-1.1-2.1-2.9-3.7-4.3-5.6-1.8-2.2-3.5-4.5-5.1-6.9-3-4.3-5.7-8.8-8-13.5-.2-.5-1-.1-.9.4,1.8,5.2,3.9,10.1,6.8,14.8h0Z"/>
  <path class="st0" d="M771.2,353.3c2,3.1,4.2,6.6,7.1,8.9.7.6,1.4-.5,1.1-1.1-1.6-3.5-4.5-6.6-6.7-9.7-2.3-3.2-4.7-6.4-7-9.6-.2-.3-.7,0-.5.3,1.7,3.9,3.7,7.7,6,11.2h0Z"/>
  <path class="st0" d="M772.8,359.1c-1.4-1.4-2.7-2.7-4-4.1-.6-.7-1.5.3-1,1,1.3,1.6,2.5,3.2,3.7,4.9.9,1.2,1.8,2.8,3.3,3.2.7.2,1.1-.4,1-1-.2-1.6-2-2.9-3-3.9h0Z"/>
  <path class="st0" d="M770.4,361.1c-.5-.4-1-.7-1.4-1.1-.5-.4-1.2.5-.7.9.4.4.9.8,1.3,1.2.4.4.8.9,1.4,1.1.6.2,1.1-.5.8-1s-.9-.8-1.4-1.1h0Z"/>
  <path class="st0" d="M810.8,394.2c3.7,3.2,9.7,7.1,14.9,6,.9-.2.7-1.4,0-1.7-2.3-.8-4.8-.8-7.2-1.6-2.5-.8-4.9-2-7.1-3.5-.4-.3-1,.4-.6.7h0Z"/>
  <path class="st0" d="M820.5,396.3c2.2.8,4.5,2.2,6.9,2.4.8,0,1.1-1.2.4-1.5-2.1-1.1-4.8-1.1-7.1-1.7-.5-.1-.8.7-.2.8h0Z"/>
  <path class="st0" d="M826.7,395.6c1.2,0,2.1.4,3.3.5.6,0,.9-.8.5-1.2-1.1-.9-2.6-.9-3.9-.7-.8.1-.6,1.4.2,1.3h0Z"/>
  <path class="st0" d="M718.6,440.6c1.8,4.4,4.7,9.1,8.5,12.1.6.5,1.3-.2.8-.8-3-3.8-6.1-7.4-8.6-11.6-.2-.4-.9-.1-.7.3Z"/>
  <path class="st0" d="M719.6,447.7c-.4-.8-1.4,0-1.1.7,1.2,2.7,2.9,5,4.9,7.1.8.9,2.2-.5,1.3-1.3-2.1-1.8-3.8-4-5.1-6.4h0Z"/>
  <path class="st0" d="M721.2,456.4c-.6-.5-1.4.3-.9.9.6.7,1.3,1.4,1.9,2.1.6.7,1.8-.4,1.1-1.1-.7-.6-1.4-1.3-2.1-1.9Z"/>
  <path class="st0" d="M770.9,481.4c4.6,3.5,9.2,6.6,14.4,9,2.3,1,4.7,1.9,7.1,2.6,2.5.8,5.4,1.8,8.1,1.6.7,0,1.1-1,.4-1.4-2.2-1.1-4.8-1.5-7.1-2.2-2.6-.8-5.1-1.8-7.6-2.8-5.1-2.1-10.3-4.6-14.8-7.8-.6-.4-1.1.5-.5.9h0Z"/>
  <path class="st0" d="M797.8,495.2c-5.7-1.2-11.7-2.5-16.9-5.4-.5-.3-.8.4-.4.7,5.1,3.8,10.5,6.6,17,6.9,1.2,0,1.5-1.9.3-2.2h0Z"/>
  <path class="st0" d="M787.9,497.3c-1.2-.3-2.4-.6-3.6-1.1-.3-.1-.6.3-.3.6,1,.9,2.1,1.6,3.3,2.2,1,.4,2.6,1,3.5.3.3-.3.4-.6,0-1-.7-.8-2.1-.8-3.1-1h0Z"/>
  <path class="st0" d="M835.8,503.3c4.4,1,10.6,2.3,14.9.3.6-.3.5-1.4-.2-1.5-2.2-.4-4.6,0-6.9.2-2.5,0-5.1,0-7.6-.1-.6,0-.8,1-.2,1.1Z"/>
  <path class="st0" d="M846.5,506c-1.4-.2-2.9,0-4.3,0s-1,1.6,0,1.6,2.9.2,4.3,0c1,0,1-1.5,0-1.6Z"/>
  <path class="st0" d="M762.6,586.8c2.2-3.5,3.6-7.8,4.4-11.8.6-3,1.9-8.3,0-10.9,0,0-.2,0-.3,0-1,1.3-.9,3.2-1.2,4.8-.3,2-.6,3.9-1,5.9-.8,3.9-2.2,7.6-3.4,11.4-.3.9,1,1.4,1.5.6Z"/>
  <path class="st0" d="M763.8,591.9c-.4.8.8,1.5,1.2.7,1.9-4.1,3.3-8.4,4.1-13,0-.8-1.1-1.1-1.2-.3-.8,4.4-2.1,8.6-4,12.6h0Z"/>
  <path class="st0" d="M738.1,637.6c-4.7,5.7-8.5,12.1-13.6,17.5-5.2,5.6-11.2,10.4-17.6,14.5-1.5,1,0,3.4,1.4,2.5,6.7-4.1,12.8-9.1,18.2-14.9,5-5.4,10.4-11.9,12.7-19,.2-.6-.7-1.2-1.1-.7h0Z"/>
  <path class="st0" d="M723.3,663.8c.5-.6-.3-1.5-.9-.9-1.6,1.6-3.3,3.2-4.9,4.8-1.5,1.4-3.4,2.9-4.3,4.7-.5.9.5,2,1.4,1.4,1.7-1.1,3.1-3.1,4.4-4.6,1.5-1.8,2.9-3.5,4.4-5.3h-.1Z"/>
  <path class="st0" d="M723.2,668.6c-1.6,1-3.3,1.9-4.6,3.3-.9.9.5,2.3,1.4,1.4,1.4-1.2,2.4-2.8,3.5-4.4.2-.2,0-.5-.3-.3h0Z"/>
  <path class="st0" d="M651.1,688.8c-3.3-.4-6.9.4-10.3.5-3.4,0-6.9,0-10.3.2-.5,0-.7.8,0,.9,3.4.6,7,.5,10.4.5s7.2,0,10.4-1c.6-.2.5-1,0-1.1h0Z"/>
  <path class="st0" d="M645.3,693.7c-2.1-.2-4.2,0-6.3,0-.7,0-.6.9,0,1,2.1.3,4.2.5,6.3.5s.9-1.4,0-1.5Z"/>
  <path class="st0" d="M431.1,599.9c-2.8,4.7-4.3,10.2-6.1,15.4,0,.3.3.5.5.2,2.6-4.8,5.6-9.6,7.1-14.9.3-.9-1.1-1.5-1.5-.6h0Z"/>
  <path class="st0" d="M417.8,667c0-.4-.6-.5-.7,0-.8,5.6-.9,11.1-.1,16.7.7,5.3,1.7,11.4,4.2,16.2.3.5,1,0,.9-.4-.5-2.5-1.4-5-2-7.5-.7-2.9-1.1-5.9-1.5-8.8-.6-5.3-.8-10.7-.8-16v-.2Z"/>
  <path class="st0" d="M456,748.6c1.8,1.4,3.7,2.7,5.7,3.8,1.7.9,3.7,2.5,5.7,2.3.5,0,1.1-.7.7-1.2-1.1-1.4-2.9-1.9-4.4-2.8-1.9-1-3.7-2.2-5.5-3.4-3.6-2.6-7.1-5.5-10.2-8.7-.3-.3-1,0-.7.5,2.4,3.6,5.2,6.9,8.7,9.5h0Z"/>
  <path class="st0" d="M515.4,755.4c-2.9,0-5.9.8-8.7,1.5-2.8.7-5.8,1.4-8.3,2.7-.4.2-.2.7.2.7,2.9,0,5.9-.7,8.7-1.3,2.8-.6,5.8-1.2,8.4-2.5.5-.3.3-1-.3-1.1h0Z"/>
  <path class="st0" d="M595.4,819.7c-1.6,4.8-3,9.6-3.8,14.7-.7,4.5-1.5,9.2-.8,13.7,0,.7,1.2.6,1.3,0,1.3-4.5,1.4-9.4,2.1-14,.7-4.7,1.2-9.5,1.9-14.2,0-.5-.6-.7-.7-.2Z"/>
  <path class="st0" d="M638.4,964.7c-2.3-3.7-4.4-7.4-6.5-11.2-4.1-7.6-8.5-15.4-11.9-23.4-.3-.7-1.5-.2-1.3.5,2.9,8.5,5.8,16.7,10.2,24.6,2.2,3.9,4.5,7.7,7,11.4,2.4,3.6,4.7,7.7,7.9,10.7,1,.9,2.5-.2,1.9-1.4-2-3.9-5-7.5-7.3-11.2h0Z"/>
  <path class="st0" d="M635.9,975.4c-1.9-2.6-3.7-5.3-5.4-8.1-3.5-5.8-6.5-12-8.9-18.4-.2-.6-1.1-.4-.9.3,1.4,6.9,3.8,13.5,7.3,19.6,1.7,2.9,3.6,5.7,5.7,8.4,1.9,2.4,4,5.7,6.8,6.9.6.3,1.3-.5,1.1-1.1-1-2.8-3.9-5.2-5.6-7.6h0Z"/>
  <path class="st0" d="M623.4,968.4c-.4-.8-1.6,0-1.2.7,2.8,5.9,6.3,12.1,11.6,16.1,1.2.9,2.4-1,1.5-2-4.3-4.8-8.8-9.1-11.9-14.9h0Z"/>
  <path class="st0" d="M396.5,403.2c0-2.7.4-5.8-.5-8.4,0-.2-.4-.3-.6,0-1.2,2.4-1.2,5.4-1.4,8-.2,3.1-.3,6.2-.4,9.3,0,6,.2,12.4,1.9,18.2.2.8,1.3.6,1.4-.2.4-6-.2-12.1-.3-18,0-2.9-.2-5.9-.1-8.8h0Z"/>
  <path class="st0" d="M391.3,411.7c0-1-1.5-1-1.6,0-.5,5.2-1,10.5-1,15.7s0,10.2,1,15.1c.3,1.6,2.8,1.2,2.8-.4,0-5.1-.9-10.1-1.1-15.2s-.3-10.1,0-15.2h0Z"/>
  <path class="st0" d="M384.4,439.1c-.7-4-.8-8-.4-12,.1-1-1.5-1-1.6,0-.5,4.2-.7,8.6-.2,12.8.4,3.7,1,8,3,11.2.6,1.1,2.1.3,1.9-.8-.6-3.7-2-7.3-2.6-11.1h0Z"/>
  <path class="st0" d="M381.5,448.6c-.2-.9-1.5-.5-1.4.4.3,1.5.6,2.9.8,4.4.3,1.5.4,3,.8,4.4.4,1.3,2.2.7,2-.6-.4-2.9-1.6-5.8-2.3-8.6h.1Z"/>
  <path class="st0" d="M469.8,535.6c3.6,3.2,7.3,6.3,11.1,9.2,4.1,3.1,8.5,6.5,13.1,8.6,1.3.6,3.1-1.2,1.7-2.2-3.8-3-8-5.3-11.9-8.1-4.1-3-8.1-6.2-12-9.6-7.4-6.5-14.7-13.4-20.9-21.1-.4-.5-1.4.2-1,.8,6,8,12.3,15.7,19.8,22.5h0Z"/>
  <path class="st0" d="M488.8,554.1c-2.9-1.8-5.8-3.6-8.6-5.5-5.5-3.7-10.7-7.7-16-11.7-.3-.2-.6.2-.4.5,4.5,5.1,9.6,9.6,15,13.7,2.4,1.9,5,3.6,7.6,5.3s5.8,4.3,8.9,4.8c1.3.2,2.2-1.1,1.3-2.2-1.9-2.2-5.3-3.5-7.8-4.9h0Z"/>
  <path class="st0" d="M487.9,561.7c-2.8-1.8-5.5-3.7-8-5.7-2.2-1.8-4.3-3.8-6.7-5.4-.6-.4-1.4.4-1,1,3.4,5.1,9.2,9.2,14.3,12.6,1.5,1,3-1.5,1.4-2.4h0Z"/>
  <path class="st0" d="M478,562.3c-1.4-1.1-2.9-2.2-4.3-3.2-.8-.6-1.9.8-1.1,1.4,1.4,1.2,2.8,2.3,4.1,3.5,1.3,1.1,2.5,2.3,4,3.2,1.1.6,2.2-.8,1.4-1.8-1.1-1.2-2.7-2.1-4-3.1h-.1Z"/>
  <path class="st0" d="M476.5,567.6c-1.3-.9-2.5-1.9-3.8-2.9-.5-.4-1.1.4-.6.8,1.2,1,2.4,2.1,3.6,3.1,1.1,1,2.1,2.1,3.4,2.9.8.5,1.7-.7,1-1.4-1-1.1-2.4-1.8-3.6-2.7v.2Z"/>
  <path class="st0" d="M566.5,585.8c2.5,1.1,4.9,2.3,7.6,3.2,2.8.9,5.7,1.4,8.7,1.8,5.8.7,12.1.6,17.7-1,1.3-.4,1.1-2.7-.3-2.5-11,1.3-22.7,1.8-33.4-2.1-.4,0-.7.5-.3.7h0Z"/>
  <path class="st0" d="M593.2,594.1c-3.2-1-6.9-.8-10.2-1-3.6-.3-7.2-.7-10.8-.9-.6,0-.7.9,0,1,3.6,1.1,7.3,1.8,11.1,2.4,3.2.5,6.9,1.3,10.1.7,1.2-.2,1-1.9,0-2.2h0Z"/>
  <path class="st0" d="M587.5,598.4c-2.1-.2-4.1,0-6.2-.2-2.3-.2-4.5-.7-6.6-1.4-1.1-.3-1.5,1.3-.5,1.7,4.1,1.5,9.2,3,13.6,2.3,1.5-.2,1-2.4-.3-2.5h0Z"/>
  <path class="st0" d="M580.7,603.8c-1.7-.9-4-1.6-5.9-1.6s-1.1,1.2-.4,1.6c1.6,1.1,3.9,1.8,5.8,2,1.1,0,1.5-1.6.6-2.1h0Z"/>
  <path class="st0" d="M680.4,317.5c-4.6,14.8-21.6,23.3-36.4,19-.9-.2-1.5,1.1-.6,1.5,11.4,5.6,25.1,2.9,34-6.1,5.2-5.3,7.9-12.3,9.1-19.6,1.4-8.6,1.6-17.4,1.2-26-.4-10.3-2.6-20-5.2-29.9-.2-.8-1.3-.4-1.2.3,1.6,10.3,1.8,21.1,1.8,31.5s0,20-2.8,29.3h.1Z"/>
  <path class="st0" d="M605.7,160.8c-.7,1.2,1.1,2.8,2.1,1.6,2.9-3.5,7.1-6.5,11.6-7.7,5.4-1.4,10.1.1,15.1,2.2,1.4.5,2.6-1.6,1.4-2.5-9.4-7.7-24.5-3.5-30.2,6.4h0Z"/>
  <path class="st0" d="M657.7,179.5c3.8,6.3,7.3,12.9,10.3,19.6,2.9,6.8,5.2,13.8,7,20.9,1.9,7.2,2.9,14.4,4.5,21.6.2.9,1.5.6,1.5-.2.4-7.5-.9-15.5-2.5-22.8s-4.1-14.6-6.9-21.5c-2.8-6.9-6.1-13.6-10.1-19.8-3.9-6.2-8.5-12.6-14.4-17-.6-.5-1.3.4-1,1,3.5,6.3,7.9,12.1,11.7,18.2h0Z"/>
  <path class="st0" d="M538.1,260.3c-.2-1.1-2.2-.9-2,.3,1.4,13.3,3.8,26.4,7.6,39.3,1.9,6.4,4.1,12.8,6.6,19,1.2,3,2.5,6.1,3.8,9.1,1.3,3.1,2.5,6.4,4.3,9.3.9,1.5,3.4.5,2.9-1.2-1-3.2-2.6-6.3-3.8-9.5-1.1-2.9-2.2-5.8-3.2-8.7-2.2-6.3-4.3-12.7-6.2-19.1-3.8-12.6-7.1-25.5-9.8-38.4h-.2Z"/>
  <path class="st0" d="M559,316.5c.9,2.7,1.8,5.4,2.8,8,1,2.5,1.8,5.2,3.5,7.3.6.7,1.9.1,1.8-.7-.3-2.6-1.5-4.9-2.5-7.4-1.1-2.8-2.1-5.6-3.1-8.4-1.9-5.5-3.6-11-5-16.7-.3-1.3-2.3-.7-2,.6,1.2,5.8,2.7,11.6,4.5,17.3h0Z"/>
  <path class="st0" d="M570.1,327.7c.6,1.6,3,.6,2.2-.9-1.6-2.8-3.2-5.5-4.7-8.3-.3-.6-1,0-.8.5,1.2,2.9,2.2,5.8,3.3,8.8h0Z"/>
  <path class="st0" d="M527.7,154c-.6,1.8-1.5,3.8-1.3,5.8,0,1.1,1.5,2,2.4,1,1.3-1.4,1.7-3.2,2.3-4.9.8-2,1.6-4,2.4-6,1.6-3.9,3.2-7.7,4.8-11.5,1.6-4,3.3-7.9,5-11.9.9-2,1.8-4,2.6-5.9.8-1.7,1.9-3.5,2.2-5.3,0-.6-.6-1-1-.6h0c-1.4,1.2-2.3,3.1-3.3,4.7-1.2,1.8-2.3,3.7-3.3,5.5-2.1,3.7-4.1,7.6-6,11.5-1.8,3.8-3.3,7.7-4.7,11.7s-1.4,4.1-2.1,6.1v-.2Z"/>
  <path class="st0" d="M540.9,145.2c-3,5.5-6.8,11.8-7,18.3,0,1.7,2.4,1.9,2.9.4,1-2.8,1.3-6,2-8.9.8-3.1,1.6-6.4,2.9-9.4.2-.5-.5-1-.8-.5h0Z"/>
  <path class="st0" d="M544.1,159.7c-.7,3.1-1.9,6.4-1.8,9.6,0,.9,1.2,1,1.5.2,1.2-2.9,1.3-6.4,1.7-9.6,0-.8-1.2-1-1.4-.2Z"/>
  <path class="st0" d="M603.4,94.6c1.6.8,2.9,1.8,4.5,2.5,1.4.6,2.9,1.2,4.3,1.8,3,1.1,6.1,2.1,9.1,3.1,2.8,1,5.5,2,8,3.5,2.4,1.4,4.2,3.5,6.5,5,.9.6,2.2-.4,1.8-1.4-1.7-5.1-8.6-8-13.2-9.8-3.1-1.2-6.3-2.1-9.5-3.1-1.7-.5-3.4-1-5.1-1.4-2.1-.5-4.1-.5-6.2-.8-.3,0-.6.4-.2.6h0Z"/>
  <path class="st0" d="M636.8,118c-.8-2.4-3.3-4.1-5.2-5.6-2.2-1.6-4.6-2.9-7.1-4.1-1.1-.5-2.1,1-1,1.7,2.3,1.3,4.4,2.9,6.4,4.6,1.7,1.4,3.2,3.7,5.2,4.6.8.4,2.1-.3,1.7-1.3h0Z"/>
  <path class="st0" d="M686.8,323.9c-2.2,5.9-5.9,11.3-10.8,15.3-2.5,2.1-5.4,3.7-8.5,4.8-1.5.5-3.1.9-4.8,1.2-1.5.2-2.9.1-4.2.8-.7.4-.8,1.6,0,1.9,2.7,1.3,7.1-.1,9.8-1,3.5-1.2,6.9-2.9,9.9-5.2,5.5-4.4,8.8-10.7,9.7-17.7,0-.7-.9-.7-1.1-.1h0Z"/>
  <path class="st0" d="M676.2,349c1.5-.7,2.9-1.6,4.1-2.7,1.1-1,2.3-2.3,2.2-3.9,0-.4-.4-.8-.8-.6-1.2.5-1.9,1.6-2.9,2.4-1.1.9-2.3,1.7-3.7,2.1-2,.7-.8,3.5,1.1,2.7h0Z"/>
  <path class="st0" d="M602.8,418.5c3,2.6,6.3,5,9.6,7.3,1.7,1.2,3.4,2.3,5.1,3.4,1.8,1.1,3.5,2.4,5.6,2.5,1.2,0,2-1.4,1.4-2.4-1-1.6-2.6-2.3-4.1-3.3-1.7-1.1-3.4-2.3-5.1-3.4-3.3-2.2-6.4-4.6-9.6-7.1-6.5-5-12.7-10.4-18.8-15.8-.5-.4-1.4.2-1,.8,4.9,6.7,10.5,12.8,16.9,18.2v-.2Z"/>
  <path class="st0" d="M626.4,422.8c-2.4-1.6-5-2.6-7.5-4.1-2.4-1.4-4.8-2.9-7.3-4.3-.8-.5-1.6.6-1,1.3,3.9,4.1,9.2,8.1,14.7,9.7,1.6.5,2.4-1.7,1.1-2.6Z"/>
  <path class="st0" d="M626.9,417c-1.5-.8-3-1.7-4.4-2.5-1.2-.7-2.2,1.1-1,1.8,1.4.9,2.8,1.9,4.2,2.8,1.3.9,2.6-1.3,1.2-2.1h0Z"/>
  <path class="st0" d="M690.5,386.1c-2.7,6.6-6.1,13-10.1,18.8-2.1,3-4.3,5.8-6.6,8.5-2.2,2.4-4.9,4.6-6.8,7.3-.8,1.2.7,2.2,1.7,1.7,3.1-1.4,6-4.5,8.3-6.9,2.5-2.6,4.8-5.5,6.8-8.6,4.1-6.3,6.8-13,8.2-20.4.2-1-1.1-1.3-1.4-.4h-.1Z"/>
  <path class="st0" d="M678.6,396.6c-.9,1.4,1.2,3,2.3,1.8,5.2-5.5,9.5-13.8,11-21.3.2-.8-.9-1.4-1.4-.6-1.8,3.4-3.5,7-5.4,10.3-1.9,3.4-4.4,6.5-6.5,9.8h0Z"/>
  <path class="st0" d="M687.3,374.3c-1.4,2.2-3.3,4.4-4.4,6.8-.6,1.2,1.1,2.3,1.9,1.1,1.5-2.2,2.4-4.9,3.6-7.3.4-.7-.6-1.2-1-.6h0Z"/>
  <path class="st0" d="M488.9,416.1c1-3.4,0-7,.9-10.5.4-1.5,1.1-2.8,2.2-3.9s2.4-1.5,3.7-2.4c.6-.4.6-1.4-.2-1.6-3.4-.9-6.6,2.7-7.9,5.4-1.8,3.8-1.9,9.5.4,13.1.3.4.9.3,1-.1h-.1Z"/>
  <path class="st0" d="M414.8,379.2c-1.3,2-1.3,4.9-1.5,7.3-.3,2.9-.4,5.9-.5,8.8,0,5.6.4,11.4,1.4,17,.2,1.2,2.1.9,2.1-.3v-16.7c0-2.6,0-5.2.2-7.8.1-2.5.7-5.6-.2-8.1-.2-.7-1.2-.9-1.6-.2h.1Z"/>
  <path class="st0" d="M421.1,383.3c0-.6-1-.9-1.2-.2-.6,2.6-.9,5.1-1.1,7.7-.2,2.5-.9,5.4-.2,7.8.3.8,1.6,1.2,2,.3,1-2.2.7-4.8.7-7.1s0-5.6-.3-8.5h.1Z"/>
  <path class="st0" d="M424.6,386.9c-.3,2-.4,3.9-.5,5.9,0,1.6,2.6,1.6,2.5,0-.2-2-.5-3.9-.9-5.9-.1-.5-1.1-.6-1.1,0Z"/>
  <path class="st0" d="M468.4,364.7c1.6-.1,1.8-2.2.4-2.7-2.9-1.2-6.5-1.1-9.6-1.2-3.2-.1-6.3,0-9.5.7-.5,0-.5.9,0,1,3,.5,6,.8,9,1.2,3.2.4,6.6,1.3,9.7,1.1h0Z"/>
  <path class="st0" d="M461.4,366.5c-1.3-.2-1.6,2-.3,2.2,2.6.5,5.5,1.4,8.1,1.2,1.3,0,1.5-1.7.3-2.2-2.4-.9-5.5-.9-8.1-1.3h0Z"/>
  <path class="st0" d="M494.4,523.3c-4.5-3.7-9-7.4-13.3-11.4-8.5-7.9-16.6-16.4-24.2-25.2-.6-.7-1.8.2-1.3,1,6.9,9.5,14.7,18.3,23.3,26.4,4.2,4,8.6,7.9,13.2,11.4,4.6,3.6,9.4,7.7,14.6,10.2,1.1.5,2.4-.9,1.4-1.8-4.2-3.9-9.3-7-13.8-10.7h0Z"/>
  <path class="st0" d="M503.6,520.2c-2.7-1.8-5.4-3.6-8-5.5-5.4-4.1-10.5-8.6-15.4-13.3-.5-.5-1.6.2-1.1.8,4.1,5.5,8.8,10.4,14.2,14.7,2.5,2,5.1,4,7.9,5.7,2.7,1.7,6.1,4.4,9.3,4.9,1.2.2,2.1-1.1,1.2-2.1-2.1-2.2-5.5-3.5-8.1-5.2h0Z"/>
  <path class="st0" d="M499,511.8c1.5,1.5,3,2.9,4.6,4.2,1.4,1.1,2.9,2.6,4.7,3,1.1.2,1.8-1,1-1.8-1.1-1.3-3-2-4.5-2.9-1.7-1.1-3.4-2.3-4.9-3.5-.7-.5-1.6.3-1,1h0Z"/>
  <path class="st0" d="M590.5,567.1c-4.6,0-10.2-.2-14.6,1.3-.6.2-.7,1.2,0,1.4,4.6,1,9.9.7,14.6.8,2.5,0,5,0,7.5.3,2.2,0,4.4.4,6.5-.6.7-.4.6-1.3,0-1.7-1.9-1.3-4.3-1.2-6.5-1.2s-5,0-7.5-.2h0Z"/>
  <path class="st0" d="M598.6,563.4c-1.3.2-2.7,0-4.1.3-.7,0-1,.9-.4,1.3,1.4.9,2.8,1.2,4.4,1.1,1.4,0,3.2,0,3.9-1.4.2-.5,0-1.1-.4-1.4-1.2-.7-2.3,0-3.5,0h0Z"/>
  <path class="st0" d="M597.1,562c.6,0,1.1-.2,1.7-.2s1.1,0,1.6-.5c.9-.6.5-1.8-.5-1.9-.6,0-1.1.2-1.7.4-.5.2-1,.4-1.6.6-1.1.4-.6,1.8.5,1.7h0Z"/>
  <path class="st0" d="M613.1,524.9c.3,1.3,2.1.9,2.2-.3.3-2.9-.5-6.2-.9-9.1-.5-3.2-1-6.4-1.6-9.7,0-.6-1.1-.5-1,0,.3,3.2.6,6.5.8,9.8.2,3,0,6.2.6,9.1h0Z"/>
  <path class="st0" d="M608.6,513c0,.9,1.5.6,1.5-.2.4-3.4-.8-7.3-2-10.5-.3-.9-1.8-.5-1.5.4,1.2,3.4,1.4,6.8,1.9,10.3h0Z"/>
  <path class="st0" d="M532,483.6c-6.6-5.4-13.2-10.7-18.9-17.2-2.9-3.3-5.5-6.8-8-10.4-2.3-3.3-4-7.4-6.7-10.4-.4-.5-1.1,0-1,.6.8,4,3.7,8,5.8,11.4,2.3,3.6,5,7.1,7.8,10.3,5.7,6.6,12.3,12.8,19.9,17.1.8.5,1.9-.7,1.1-1.4h0Z"/>
  <path class="st0" d="M507.3,470.5c1.3,1,3.2-.8,1.9-1.9-1.8-1.4-3.4-3-4.9-4.7-1.3-1.6-2.3-3.5-3.9-4.7-.3-.2-.8,0-.8.5,0,2.2,1.5,4.1,2.8,5.8,1.5,1.9,3.1,3.6,5,5.1h-.1Z"/>
  <path class="st0" d="M475.1,640.3c2.5-4.1,3.7-8.8,6.4-12.9,2.6-3.8,6-6.2,9.5-9,.4-.3,0-1.2-.5-1.1-4.4.4-7.9,4-10.5,7.4-3.1,4.1-6,9.6-6.9,14.7-.2,1.2,1.3,1.9,1.9.8h.1Z"/>
  <path class="st0" d="M506.5,615.2c.9,0,2,.2,2.9.4.8.3,1.5.8,2.4.8s1.3-.9.9-1.5c-1.3-2.1-4.6-1.5-6.5-.9-.8.2-.4,1.3.3,1.2h0Z"/>
  <path class="st0" d="M540.3,643.1c-2.6-6.2-6.5-13.9-12.1-17.8-.4-.3-.8.3-.6.6,1.3,3,3.4,5.8,5,8.7,1.7,3,3.2,6.2,4.5,9.4,2.6,6.3,4.3,13,4.9,19.8.7,7.2.4,14.7-2,21.5-1,3.1-2.5,6-4.5,8.6s-4.6,4.4-6.8,6.7c-.7.7,0,2,1,1.7,6.2-1.6,10.8-8.9,12.9-14.4,2.9-7.3,3.4-15.6,2.8-23.3-.5-7.4-2.3-14.7-5.1-21.5h0Z"/>
  <path class="st0" d="M548.1,662.8c.2,4.1-.4,8.2-1,12.3-.2,1.2,1.6,1.7,1.9.5,1-4.3.6-8.6,0-12.9,0-.5-.8-.4-.8,0h-.1Z"/>
  <path class="st0" d="M468.2,595.3c.6-.7,1.3-1.5,1.8-2.3.2-.4.1-.8-.2-1.1-.4-.3-.8-.2-1.1,0-.7.6-1.3,1.2-1.9,1.9-.4.4-.4,1,0,1.4s1.1.4,1.4,0h0Z"/>
  <path class="st0" d="M435.5,676c-1.6-6.3-3.5-12.7-4.6-19.1-.1-.8-1.2-.4-1.1.3,1,6.5,1.5,13.1,2.8,19.6.6,3.1,1.4,6.3,2.2,9.4.7,2.5,1,6.3,3.1,8.1.5.4,1.3.3,1.5-.4.8-2.5-.7-5.6-1.4-8.1-.8-3.3-1.6-6.5-2.4-9.8h-.1Z"/>
  <path class="st0" d="M441.7,685.1c-.3-1.7-.4-3.5-.3-5.2,0-1-1.5-1-1.6,0-.3,3.2-.3,7.6,1.5,10.5.5.9,1.7.3,1.6-.7-.3-1.6-.9-3-1.2-4.6Z"/>
  <path class="st0" d="M444.4,685.6c.3,1.4.4,3.2,1.1,4.4.4.6,1.2.3,1.3-.3,0-1.4-.6-3.1-1-4.5-.2-.9-1.6-.5-1.4.4h0Z"/>
  <path class="st0" d="M471.9,736.2c-2.1-1.7-4.1-3.4-6-5.3-3.8-3.5-7.3-7.3-11.1-10.9-.5-.5-1.4,0-1,.8,2.8,4.5,6.4,8.4,10.1,12.1,1.9,1.9,3.8,3.7,5.8,5.5,1.7,1.5,3.7,3.6,6,4.3,1,.3,1.9-.9,1.4-1.8-1.1-1.9-3.4-3.3-5.1-4.7h0Z"/>
  <path class="st0" d="M474.5,732.8c-1.3-.9-2.5-1.8-3.5-3.2s-1.6,0-1.2.7c1.6,2.4,4,5.8,7.1,6.5.9.2,1.9-1,1-1.8-1-.9-2.3-1.4-3.5-2.2h.1Z"/>
  <path class="st0" d="M480.7,731.6c-1.3-.3-2.5-.9-3.4-1.9-.8-.8-1.9.4-1.2,1.2,1.1,1.2,2.5,2.1,4.1,2.6,1.2.4,1.7-1.6.5-1.9h0Z"/>
  <path class="st0" d="M482.6,691.6c-1.9-2.4-3.5-5-4.8-7.8-2.8-5.8-4.3-12.2-4.6-18.6,0-1-1.4-1-1.5,0-.5,6.8.8,13.4,3.6,19.5,1.4,3,3.2,6,5.3,8.6,1.9,2.3,4.1,5,6.9,6.1.6.2,1-.5.8-1-1.5-2.5-4-4.6-5.7-6.9h0Z"/>
  <path class="st0" d="M474.3,691.6c.8.9,2.1-.4,1.4-1.4-1.8-2.1-3.4-4.3-4.6-6.8-.2-.5-1.1,0-.9.4.9,2.8,2.1,5.6,4.1,7.8Z"/>
  <path class="st0" d="M536.6,737.1c-2.8,1-5.5,2.4-8.4,3.3-3.1.9-6.3,1.5-9.5,1.8-.9,0-.9,1.2,0,1.3,6.2.6,13.8-.5,18.9-4.2,1-.8.5-2.8-1-2.3h0Z"/>
  <path class="st0" d="M530,736.7c1-.4,2.1-.7,3-1.2,1.1-.6.3-2.3-.9-2-1,.2-1.9.6-2.8,1-.6.2-1,.8-.8,1.4.2.6.8,1,1.4.8h0Z"/>
  <path class="st0" d="M552.5,721.7c2.6-4.7,5.2-9.5,6-14.9.2-1.3-1.6-1.9-2-.6-1.8,5-2.9,10.2-4.8,15.1-.2.5.6.8.9.4h-.1Z"/>
  <path class="st0" d="M550.9,706.5c-.4,1.1-1.1,2.5-.9,3.8,0,.5.6.7.9.4.9-.9,1.4-2.4,1.7-3.7.4-1.2-1.3-1.6-1.8-.5h0Z"/>
  <path class="st0" d="M672.9,540.9c4.3,0,8.8,0,13.1.8,4.2.7,7.9,2.7,11.9,4,1,.3,1.8-1.1,1-1.8-3.3-2.9-8.4-4.2-12.7-4.9-4.7-.7-9-.4-13.4,1.3-.3,0-.3.6,0,.6h.1Z"/>
  <path class="st0" d="M669,613.4c-1,.5-.3,2.3.8,1.9,8.6-3.3,16.3-8.8,22.7-15.4,6.6-6.8,10.6-14.8,13.6-23.7.2-.5-.6-.9-.9-.4-3.5,8-9.1,15.4-15,21.8-6.1,6.6-13.3,11.6-21.2,15.8h0Z"/>
  <path class="st0" d="M702.4,595.1c.3-.4-.3-.9-.7-.5-3.7,3.8-7.6,7.3-11.7,10.6-1.1.9.4,2.8,1.5,2,4.5-3.3,8.1-7.3,10.9-12.1Z"/>
  <path class="st0" d="M724.4,627c-4.6,4.8-9.3,9.6-14.1,14.2-2.3,2.2-4.7,4.4-7.1,6.5-2.5,2.2-5.9,4.2-8,6.7-.7.8,0,2.6,1.2,2.1,2.8-1.1,5.3-3.6,7.7-5.5,2.8-2.3,5.6-4.7,8.2-7.2,5-4.8,9.4-10.2,13.2-16,.4-.6-.5-1.4-1-.8h-.1Z"/>
  <path class="st0" d="M696.7,647c-.6.8,0,2,1,1.8,2.5-.6,4.8-3.1,6.5-4.9,2-2,3.8-4.3,5.5-6.6.4-.6-.5-1.3-1-.7-1.7,2.1-3.5,4-5.6,5.7-2,1.6-4.9,2.8-6.5,4.8h0Z"/>
  <path class="st0" d="M746.6,578.7c1.9-2.7,2.6-6.5,3.4-9.7.6-2.5,1.8-6.1.7-8.6,0-.3-.7-.4-.9,0-1.7,2.1-1.8,5.9-2.5,8.5-.8,3.1-2.2,6.2-2.6,9.4,0,1.1,1.3,1.2,1.8.5h0Z"/>
  <path class="st0" d="M741.7,577.2c.5-1.4,1.1-2.9,1.6-4.3.2-.5-.6-.8-.9-.4-.6,1.4-1.2,2.8-1.9,4.2-.4.8.8,1.3,1.1.5h.1Z"/>
  <path class="st0" d="M706.8,506c3.7.6,7.4.3,11.2,1.3,3.6,1,6.9,3.2,10.5,4,.6,0,1.3-.6.9-1.2-2.2-3.1-6.7-4.6-10.2-5.5-3.8-.9-8.5-1.7-12.3-.3-.7.2-.9,1.4,0,1.5v.2Z"/>
  <path class="st0" d="M705.9,509.6c2.5.9,5.2,2.2,7.9,2.2s1.3-1.3.5-1.7c-2.4-1.2-5.6-1.2-8.2-1.4-.6,0-.6.8,0,.9h-.1Z"/>
  <path class="st0" d="M651.7,520.8c2-1,3.8-2.3,5.9-3.1,1.8-.7,3.7-1.1,5.3-2,.6-.3.5-1.3-.2-1.4-4-.8-9.7,1.9-12.4,4.8-.8.9.2,2.2,1.3,1.7h.1Z"/>
  <path class="st0" d="M657.8,520.4c-.8,0-1.5.2-2.2.5s-1.4.6-2.1.8c-1.3.5-.8,2.7.6,2.2l2.3-.8c.8-.3,1.5-.5,2.1-1.1s0-1.5-.7-1.6h0Z"/>
  <path class="st0" d="M653.8,526.9c-.3,0-.7,0-1,.2-.5,0-.8.7-.7,1.2.2.5.7.8,1.2.7.3,0,.7-.2,1-.3.5,0,.8-.7.7-1.2-.2-.5-.6-.8-1.2-.7h0Z"/>
  <path class="st0" d="M656.6,672.3c-4.9-.3-10,0-14.9,0h-7c-2.4,0-4.8-.3-7.2,0-.8.2-.6,1.2,0,1.4,2.2.8,4.8.8,7.2,1,2.5.2,5,.3,7.5.3,4.9,0,9.9,0,14.7-1.1,1-.2.7-1.7-.2-1.7h0Z"/>
  <path class="st0" d="M629.6,668.4c1.3,1.2,3.4,1.1,5.1,1.2,2.3,0,4.9.5,7.1-.2,1-.3,1-1.8,0-2.1-2.2-.7-4.8-.4-7.1-.2-1.7,0-3.8,0-5.1,1.2v.2h0Z"/>
  <path class="st0" d="M633.7,663.6c-1.5,0-2.8.3-4.2.7-.6.2-.7,1.2,0,1.3,1.4.2,2.7.3,4.2.2,1.4,0,1.4-2.3,0-2.2Z"/>
  <path class="st0" d="M594.1,642.8c-2-3.8-4.1-7.5-6.1-11.3-.2-.3-.6,0-.5.2,1.1,4.1,2.3,8.1,4.1,12,1.6,3.7,3.5,8.2,6.3,11s2.2,0,1.9-1.1c-1.2-3.8-3.8-7.4-5.7-10.9h0Z"/>
  <path class="st0" d="M597.5,639.4c-1-1.6-1.8-3.2-2.9-4.6-.2-.3-.8-.2-.7.2.3,3.3,1.8,7.7,4.3,10,.8.8,2.5,0,2-1.2-.6-1.6-1.7-3-2.6-4.4h0Z"/>
  <path class="st0" d="M600.3,633.5c-.5-.7-1.8-.3-1.5.6.6,1.4,1.2,2.9,2,4.3.6,1.1,2.1,0,1.6-.9-.6-1.4-1.3-2.7-2.1-4h0Z"/>
  <path class="st0" d="M710.8,801.5c.7-.3.7-1.5-.2-1.5-4.4.3-8,1.1-12,3.2-3.8,2-7.4,4.6-10.4,7.7-6,6-10.2,14-10.9,22.5,0,1.2,1.7,1.4,2.1.3,2.3-7.5,6.1-14.4,11.6-20,5.4-5.5,12.5-9.5,19.8-12.2h0Z"/>
  <path class="st0" d="M696.1,928.5c2.4,3.1,5.8,6.5,9.5,7.8,1.2.4,2-1.2,1.2-2-2.7-2.7-5.8-4.7-8.4-7.6-2.5-2.9-4.9-6.2-6.8-9.6-.3-.5-1.1-.2-.9.4,1.1,4.1,2.7,7.6,5.4,11h0Z"/>
  <path class="st0" d="M655.1,952.1c-1.1-2.4-2.3-4.8-3.4-7.2-2.3-4.8-4.6-9.5-7-14.2s-4.9-9.4-7.3-14c-1.2-2.3-2.5-4.7-3.8-7-1.1-2-2-4.5-3.9-6-.5-.4-1.3-.2-1.3.5,0,2.2,1.3,4.1,2.2,6.1,1.1,2.4,2.2,4.8,3.3,7.2,2.4,4.9,4.7,9.9,7.1,14.8,2.3,4.8,4.7,9.5,7.2,14.2,1.2,2.3,2.5,4.7,3.7,7s2.2,4.8,3.9,6.7c.9,1,2.4,0,2.2-1.3-.5-2.4-1.8-4.6-2.8-6.7h-.1Z"/>
  <path class="st0" d="M658.8,945.6c-2.3-3.4-4.6-6.9-6.7-10.4-.7-1.1-2.3,0-1.7,1,1.9,3.8,3.8,7.6,6.1,11.3,2,3.3,4.1,7.4,6.9,10.1,1.2,1.2,2.9-.3,2.2-1.7-1.7-3.6-4.6-7-6.8-10.3h0Z"/>
  <path class="st0" d="M669.8,950.7c-1.1-1.3-2.2-2.6-3.2-4-.7-.9-2.3,0-1.6.9.9,1.3,1.8,2.7,2.7,4,.8,1.2,1.5,2.8,2.6,3.7.8.7,2.5,0,2-1.2-.6-1.3-1.6-2.4-2.5-3.5h0Z"/>
  <path class="st0" d="M624.6,789.6c-8.3,14-12.7,29.7-14.4,45.9-.2,1.7,2.8,2.2,3.1.4,2.2-15.7,6.9-31,12.5-45.8.3-.7-.8-1.1-1.2-.5h0Z"/>
  <path class="st0" d="M620.8,818.1c-1.5,3.3-2.4,6.8-3,10.4-.6,3.3-1.1,7-.3,10.3.2,1,1.9,1.1,2.1,0,.6-3.1.4-6.4.7-9.5.3-3.6,1.1-7.1,1.8-10.6.2-.7-1-1.3-1.3-.5h0Z"/>
  <path class="st0" d="M624.3,832.1c-.2,2.4-.5,4.9-.4,7.4,0,1.4,2,1.4,2.2,0,.2-2.4,0-4.9,0-7.4s-1.7-1.1-1.8,0Z"/>
  <path class="st0" d="M691.3,756.8c7.2-.9,14.4-1.4,21.6-2.2,1.5,0,1.5-2.2,0-2.4-7.3-.6-14.9-.2-22.1.8s-7.3,1.2-10.9,1.9c-3.4.7-7.4,1.2-10.4,3.1-.8.6-.5,1.7.5,1.8,3.2.3,6.7-.9,9.8-1.5,3.8-.7,7.6-1.2,11.4-1.7v.2Z"/>
  <path class="st0" d="M689.3,762.7c1.6-.5,1.3-3.1-.4-3-2.3.2-4.6.8-6.9,1.3-2.2.5-4.6.7-6.5,1.9-.5.3-.5,1.3.2,1.4,2,.4,4.1,0,6.2-.4,2.5-.3,5.1-.6,7.5-1.2h0Z"/>
  <path class="st0" d="M679.2,767.5c-1.3,0-1.4,2.1,0,2.1s3.7,0,5.3-.4c.9-.3,1.1-1.9,0-2-1.7-.3-3.6,0-5.3.3h0Z"/>
  <path class="st0" d="M790.8,269.2c1.9-.8,3.4-2.2,5.4-2.9,2.1-.8,4.4-1,6.6-.8,4.9.5,8.3,3.5,12.8,5.1.6.2,1.3-.6.9-1.2-3.1-4.1-9.4-6.5-14.4-6.7-4-.2-10.7,1.5-11.6,6.1,0,.2.2.4.4.3h-.1Z"/>
  <path class="st0" d="M827,280.4c.8,1,1.3,2.3,2.2,3.3.7.7,2,0,1.7-1-1-2.8-4-4.6-6.3-6.1-.3-.2-.7.3-.4.6,1,.9,2,2.2,2.8,3.3h0Z"/>
  <path class="st0" d="M843.9,305.4c-.3-.4-.9,0-.6.4,2.5,4.7,4.4,10.1,5.8,15.2,1.4,4.8,3.7,12.7-2.2,15.5-1.4.7-.2,2.8,1.2,2.1,5.7-2.8,5.6-9.5,4.4-14.8-1.5-6.9-4.5-12.7-8.7-18.4h0Z"/>
  <path class="st0" d="M829.7,343.5c3.4,1,7.9,1.4,11.1-.4,1-.6.6-2.2-.6-2.2-3.4.1-6.4.8-9.8-.2-3-.8-6.3-2.3-8.7-4.3-.3-.2-.8,0-.6.4,1.1,1.6,1.7,2.7,3.3,3.9,1.6,1.2,3.3,2.1,5.2,2.6v.2Z"/>
  <path class="st0" d="M785.8,243.8c-3.7-1.7-7.2-1.1-11-.2-.2,0-.2.4,0,.4,3.6-.2,7.1.7,10.7.8.5,0,.8-.8.3-1Z"/>
  <path class="st0" d="M781.1,247.2c-.3,0-.3.5,0,.6,1.7.3,3.3.5,5,.2,1-.2.7-1.7-.2-1.7-1.6,0-3.2.4-4.8.9Z"/>
  <path class="st0" d="M756.6,265.9c0-.4-.6-.4-.6,0,0,7.8.4,16.1,3.1,23.5.3.9,1.5.5,1.4-.4-1.4-7.7-3.3-15.2-3.8-23.1h-.1Z"/>
  <path class="st0" d="M762.8,283.3c0-.4-.7-.3-.7,0,0,1.5,0,2.9.3,4.4.2,1.2.3,2.5,1.5,3,.4.2.7-.2.8-.5.4-1.1-.5-2.2-.9-3.2-.5-1.2-.8-2.5-1.1-3.8h.1Z"/>
  <path class="st0" d="M768.5,289.4c0-.4-.6-.8-1.1-.6-.5.1-.8.6-.6,1.1l.3,1.2c0,.4.6.8,1.1.6.5-.1.8-.6.6-1.1,0-.4-.2-.8-.3-1.2Z"/>
  <path class="st0" d="M795.2,347.6c-2-2-3.9-4-5.7-6.1-3.8-4.3-7.7-8.8-10.9-13.5-.3-.5-1.1,0-.8.5,2.9,4.9,5.8,9.7,9.4,14.1,1.8,2.2,3.6,4.2,5.6,6.2,1.9,2,4,4.4,6.5,5.7.8.4,1.8-.4,1.3-1.3-1.4-2.1-3.6-3.8-5.4-5.5h0Z"/>
  <path class="st0" d="M792,339.5c-.3-.3-.7.3-.4.6,3.8,4.8,8.4,9.3,13.8,12.3,1,.5,2.1-.8,1.2-1.6-4.6-4.1-9.7-7.6-14.6-11.3Z"/>
  <path class="st0" d="M808.2,346.3c-.2-.2-.5-.3-.8-.5-.5-.3-1.1-.5-1.7-.6-.5,0-.9.4-.6.8.3.5.6,1,1,1.4.5.5,1,1,1.8.9.6,0,1-.5.9-1.1,0-.4-.2-.7-.6-1h0Z"/>
  <path class="st0" d="M843.2,384.6c-2.8-1.3-6.2-1.4-9.1-2.3-3.3-1.1-6.6-2.5-9.7-4.3-.5-.3-1,.4-.6.7,2.6,2.4,5.4,4.5,8.7,5.8,3,1.2,7.2,2.7,10.4,1.8.8-.2,1-1.4.2-1.8h0Z"/>
  <path class="st0" d="M835.5,379.4c-.7-.1-1,.9-.3,1.1,1.4.4,2.9.8,4.3,1.2.9.2,1.3-1.2.4-1.4-1.5-.3-2.9-.6-4.4-.9h0Z"/>
  <path class="st0" d="M866.4,365.5c-1.1,2.8-2.5,5.5-4,8.1-1.4,2.4-3.3,4.5-4.7,6.9-.4.7.4,1.6,1.1,1.1,5-3.4,7.6-10.3,8.2-16.1,0-.4-.5-.4-.6,0Z"/>
  <path class="st0" d="M859.2,376.5c1.6-1.2,2.3-2.9,2.8-4.8.2-.7-.9-1.2-1.3-.5-.7,1.4-2,2.4-2.9,3.5-.8.9.3,2.6,1.4,1.8Z"/>
  <path class="st0" d="M861,334.5c.8,2.1,1.3,4.4,2.8,6,.5.5,1.4.1,1.4-.6,0-2.3-1.2-4.3-2.1-6.3-1.1-2.4-2.4-4.8-3.5-7.2-.3-.6-1.3-.2-1.1.5.9,2.5,1.6,5.1,2.5,7.6h0Z"/>
  <path class="st0" d="M839.2,286.7c.8,1.1,2.3,0,1.4-1.1-1.1-1.4-2.3-2.8-3.4-4.3-.6-.7-1.8.2-1.2.9,1.1,1.5,2.2,2.9,3.2,4.4h0Z"/>
  <path class="st0" d="M815.8,257.5c.5.2,1.2-.4.7-.9-2.9-2.5-6.4-4.6-9.6-6.7-.3-.2-.5.2-.3.4,2.6,2.7,5.8,5.6,9.3,7.2h-.1Z"/>
  <path class="st0" d="M730.8,433.7c-1.2-2.3-2.3-4.7-3.8-6.8-.2-.3-.7-.2-.7.2.5,5.1,3.4,10.9,7.1,14.4.6.6,1.3-.1,1-.8-1-2.4-2.5-4.7-3.7-7h.1Z"/>
  <path class="st0" d="M735.1,436c-.3-.4-.9.1-.7.5,1.3,2.1,2.5,4.3,3.9,6.3.7.9,2.2,0,1.6-.9-1.4-2.1-3.2-3.9-4.8-5.9Z"/>
  <path class="st0" d="M743.2,440.5c-.4-.6-.8-1.1-1.1-1.7-.4-.7-1.5,0-1.1.6.3.6.7,1.2,1,1.7.3.6.6,1.2,1.1,1.6.5.5,1.4,0,1.1-.7-.2-.6-.6-1.1-1-1.7v.2Z"/>
  <path class="st0" d="M740.9,411.5c-1.5,0-3,.3-4.5.4-.8,0-.8,1.3,0,1.2,1.5,0,3,0,4.5-.3.8-.1.9-1.4,0-1.3h0Z"/>
  <path class="st0" d="M804.6,480.3c-2-1.1-4.4-1.6-6.6-2.3-2.6-.8-5.1-1.8-7.6-2.8-5.1-2-10-4.4-14.9-6.8-.7-.3-1.2.6-.6,1,4.5,3.1,9.3,5.5,14.4,7.6,2.4,1,4.8,2,7.2,2.8s5,2,7.6,2,1.2-1.2.4-1.6h0Z"/>
  <path class="st0" d="M801.8,476.4c1.1.3,1.9-1.4.8-1.9-1.7-.8-3.5-1.2-5.3-1.8-.9-.3-1.5,1.2-.6,1.5,1.7.7,3.4,1.6,5.2,2.1h-.1Z"/>
  <path class="st0" d="M775.1,450.1c-1.1-1.5-3-2.4-4.4-3.6-1.8-1.4-3.4-3.1-4.8-4.8-3.1-3.8-7.5-9.8-4.2-14.4.5-.6-.5-1.6-1.1-1.1-4.7,3.3-.7,10.3,1.7,13.8,1.5,2.3,3.3,4.4,5.3,6.3,1.8,1.7,4.4,4.3,6.9,4.7.5,0,1-.4.7-.9h-.1Z"/>
  <path class="st0" d="M760.9,440.7c-.9-1-1.6-2.1-2.1-3.3-.3-.6-1.4-.2-1.1.5.8,2.2,2.2,5.9,4.7,6.6.7.2,1.2-.6.9-1.2-.5-1-1.6-1.8-2.4-2.7h0Z"/>
  <path class="st0" d="M817.8,466.2c-4.7,1.3-10.1,0-14.8-1.1-.5-.1-.7.6-.2.8,5.9,2.4,11.9,3.7,18.1,1.4,4.7-1.7,7.5-6.3,6.4-11.2,0-.5-.8-.3-.8.1-.4,4.6-4.4,8.8-8.7,10h0Z"/>
  <path class="st0" d="M766.6,417.1c2.1,1.5,4.3,3,6.8,3.8.9.3,1.6-1.1.7-1.6-2.2-1.2-4.6-2.1-6.8-3.3-.8-.5-1.4.7-.7,1.2h0Z"/>
  <path class="st0" d="M812.3,440.6c1,.8,2,1.7,3.2,2.2.6.3,1.2-.4.7-.9-1.8-1.8-4.6-3-6.8-4.4-.3-.2-.7.3-.4.5,1.1.9,2.2,1.7,3.3,2.6h0Z"/>
  <path class="st0" d="M833.9,491.7c4.5.7,10.2,1.4,14.4-1,.6-.4.4-1.4-.4-1.4-2.2,0-4.4.7-6.5,1-2.4.3-4.9.6-7.3.5-.5,0-.6.8,0,.8h-.1Z"/>
  <path class="st0" d="M840.6,488.2c.2.5.7.8,1.2.7.8-.2,1.8-.2,2.5-.7.8-.5.4-1.6-.5-1.7-.4,0-.9,0-1.3.2-.4,0-.8.2-1.3.3-.5.1-.8.7-.7,1.2h0Z"/>
  <path class="st0" d="M842.2,485.8c.7,0,.7-1.1,0-1.1h-.8c-.7,0-.7,1.2,0,1.1h.8Z"/>
  <path class="st0" d="M849,475.5c.3.4,1.1.2.9-.4-1.3-4-4.1-7.5-7.4-10-.5-.3-.9.4-.6.7,2.5,3.1,4.8,6.3,7.1,9.6h0Z"/>
  <path class="st0" d="M842.1,469.9c.4.6.6,1.4,1.3,1.9.5.3,1.1-.1,1.1-.6,0-.8-.6-1.6-1.1-2.2-.5-.7-1.1-1.3-1.8-1.9s-1.6.3-1,1c.5.6,1,1.2,1.5,1.9h0Z"/>
  <path class="st0" d="M833,456.3c.7.6,1.5-.6.9-1.2-1-1.2-2.2-2.1-3.4-3.2-.7-.6-1.7.4-1.1,1.1,1.1,1.1,2.2,2.4,3.5,3.3h0Z"/>
</svg>